<?xml version="1.0" encoding="utf-8" standalone="no"?>
<!DOCTYPE svg PUBLIC "-//W3C//DTD SVG 1.1//EN"
  "http://www.w3.org/Graphics/SVG/1.1/DTD/svg11.dtd">
<svg xmlns:xlink="http://www.w3.org/1999/xlink" width="928.46125pt" height="370.266116pt" viewBox="0 0 928.46125 370.266116" xmlns="http://www.w3.org/2000/svg" version="1.1">
 <metadata>
  <rdf:RDF xmlns:dc="http://purl.org/dc/elements/1.1/" xmlns:cc="http://creativecommons.org/ns#" xmlns:rdf="http://www.w3.org/1999/02/22-rdf-syntax-ns#">
   <cc:Work>
    <dc:type rdf:resource="http://purl.org/dc/dcmitype/StillImage"/>
    <dc:date>2026-04-08T15:10:04.461881</dc:date>
    <dc:format>image/svg+xml</dc:format>
    <dc:creator>
     <cc:Agent>
      <dc:title>Matplotlib v3.10.8, https://matplotlib.org/</dc:title>
     </cc:Agent>
    </dc:creator>
   </cc:Work>
  </rdf:RDF>
 </metadata>
 <defs>
  <style type="text/css">*{stroke-linejoin: round; stroke-linecap: butt}</style>
 </defs>
 <g id="figure_1">
  <g id="patch_1">
   <path d="M -0 370.266116 
L 928.46125 370.266116 
L 928.46125 0 
L -0 0 
z
" style="fill: #ffffff"/>
  </g>
  <g id="axes_1">
   <g id="patch_2">
    <path d="M 43.78125 321.879506 
L 458.66125 321.879506 
L 458.66125 65.328 
L 43.78125 65.328 
z
" style="fill: #ffffff"/>
   </g>
   <g id="patch_3">
    <path d="M 62.639432 321.879506 
L 170.400471 321.879506 
L 170.400471 155.890681 
L 62.639432 155.890681 
z
" clip-path="url(#p9a5afb56bb)" style="fill: #4c72b0; stroke: #000000; stroke-width: 0.6; stroke-linejoin: miter"/>
   </g>
   <g id="patch_4">
    <path d="M 197.340731 321.879506 
L 305.101769 321.879506 
L 305.101769 123.821743 
L 197.340731 123.821743 
z
" clip-path="url(#p9a5afb56bb)" style="fill: #55a868; stroke: #000000; stroke-width: 0.6; stroke-linejoin: miter"/>
   </g>
   <g id="patch_5">
    <path d="M 332.042029 321.879506 
L 439.803068 321.879506 
L 439.803068 172.823081 
L 332.042029 172.823081 
z
" clip-path="url(#p9a5afb56bb)" style="fill: #c44e52; stroke: #000000; stroke-width: 0.6; stroke-linejoin: miter"/>
   </g>
   <g id="matplotlib.axis_1">
    <g id="xtick_1">
     <g id="line2d_1">
      <defs>
       <path id="mad7f2876eb" d="M 0 0 
L 0 3.5 
" style="stroke: #000000; stroke-width: 0.8"/>
      </defs>
      <g>
       <use xlink:href="#mad7f2876eb" x="116.519951" y="321.879506" style="stroke: #000000; stroke-width: 0.8"/>
      </g>
     </g>
     <g id="text_1">
      <!-- basic_validation -->
      <g transform="translate(78.466022 356.975511) rotate(-15) scale(0.1 -0.1)">
       <defs>
        <path id="DejaVuSans-62" d="M 3116 1747 
Q 3116 2381 2855 2742 
Q 2594 3103 2138 3103 
Q 1681 3103 1420 2742 
Q 1159 2381 1159 1747 
Q 1159 1113 1420 752 
Q 1681 391 2138 391 
Q 2594 391 2855 752 
Q 3116 1113 3116 1747 
z
M 1159 2969 
Q 1341 3281 1617 3432 
Q 1894 3584 2278 3584 
Q 2916 3584 3314 3078 
Q 3713 2572 3713 1747 
Q 3713 922 3314 415 
Q 2916 -91 2278 -91 
Q 1894 -91 1617 61 
Q 1341 213 1159 525 
L 1159 0 
L 581 0 
L 581 4863 
L 1159 4863 
L 1159 2969 
z
" transform="scale(0.015625)"/>
        <path id="DejaVuSans-61" d="M 2194 1759 
Q 1497 1759 1228 1600 
Q 959 1441 959 1056 
Q 959 750 1161 570 
Q 1363 391 1709 391 
Q 2188 391 2477 730 
Q 2766 1069 2766 1631 
L 2766 1759 
L 2194 1759 
z
M 3341 1997 
L 3341 0 
L 2766 0 
L 2766 531 
Q 2569 213 2275 61 
Q 1981 -91 1556 -91 
Q 1019 -91 701 211 
Q 384 513 384 1019 
Q 384 1609 779 1909 
Q 1175 2209 1959 2209 
L 2766 2209 
L 2766 2266 
Q 2766 2663 2505 2880 
Q 2244 3097 1772 3097 
Q 1472 3097 1187 3025 
Q 903 2953 641 2809 
L 641 3341 
Q 956 3463 1253 3523 
Q 1550 3584 1831 3584 
Q 2591 3584 2966 3190 
Q 3341 2797 3341 1997 
z
" transform="scale(0.015625)"/>
        <path id="DejaVuSans-73" d="M 2834 3397 
L 2834 2853 
Q 2591 2978 2328 3040 
Q 2066 3103 1784 3103 
Q 1356 3103 1142 2972 
Q 928 2841 928 2578 
Q 928 2378 1081 2264 
Q 1234 2150 1697 2047 
L 1894 2003 
Q 2506 1872 2764 1633 
Q 3022 1394 3022 966 
Q 3022 478 2636 193 
Q 2250 -91 1575 -91 
Q 1294 -91 989 -36 
Q 684 19 347 128 
L 347 722 
Q 666 556 975 473 
Q 1284 391 1588 391 
Q 1994 391 2212 530 
Q 2431 669 2431 922 
Q 2431 1156 2273 1281 
Q 2116 1406 1581 1522 
L 1381 1569 
Q 847 1681 609 1914 
Q 372 2147 372 2553 
Q 372 3047 722 3315 
Q 1072 3584 1716 3584 
Q 2034 3584 2315 3537 
Q 2597 3491 2834 3397 
z
" transform="scale(0.015625)"/>
        <path id="DejaVuSans-69" d="M 603 3500 
L 1178 3500 
L 1178 0 
L 603 0 
L 603 3500 
z
M 603 4863 
L 1178 4863 
L 1178 4134 
L 603 4134 
L 603 4863 
z
" transform="scale(0.015625)"/>
        <path id="DejaVuSans-63" d="M 3122 3366 
L 3122 2828 
Q 2878 2963 2633 3030 
Q 2388 3097 2138 3097 
Q 1578 3097 1268 2742 
Q 959 2388 959 1747 
Q 959 1106 1268 751 
Q 1578 397 2138 397 
Q 2388 397 2633 464 
Q 2878 531 3122 666 
L 3122 134 
Q 2881 22 2623 -34 
Q 2366 -91 2075 -91 
Q 1284 -91 818 406 
Q 353 903 353 1747 
Q 353 2603 823 3093 
Q 1294 3584 2113 3584 
Q 2378 3584 2631 3529 
Q 2884 3475 3122 3366 
z
" transform="scale(0.015625)"/>
        <path id="DejaVuSans-5f" d="M 3263 -1063 
L 3263 -1509 
L -63 -1509 
L -63 -1063 
L 3263 -1063 
z
" transform="scale(0.015625)"/>
        <path id="DejaVuSans-76" d="M 191 3500 
L 800 3500 
L 1894 563 
L 2988 3500 
L 3597 3500 
L 2284 0 
L 1503 0 
L 191 3500 
z
" transform="scale(0.015625)"/>
        <path id="DejaVuSans-6c" d="M 603 4863 
L 1178 4863 
L 1178 0 
L 603 0 
L 603 4863 
z
" transform="scale(0.015625)"/>
        <path id="DejaVuSans-64" d="M 2906 2969 
L 2906 4863 
L 3481 4863 
L 3481 0 
L 2906 0 
L 2906 525 
Q 2725 213 2448 61 
Q 2172 -91 1784 -91 
Q 1150 -91 751 415 
Q 353 922 353 1747 
Q 353 2572 751 3078 
Q 1150 3584 1784 3584 
Q 2172 3584 2448 3432 
Q 2725 3281 2906 2969 
z
M 947 1747 
Q 947 1113 1208 752 
Q 1469 391 1925 391 
Q 2381 391 2643 752 
Q 2906 1113 2906 1747 
Q 2906 2381 2643 2742 
Q 2381 3103 1925 3103 
Q 1469 3103 1208 2742 
Q 947 2381 947 1747 
z
" transform="scale(0.015625)"/>
        <path id="DejaVuSans-74" d="M 1172 4494 
L 1172 3500 
L 2356 3500 
L 2356 3053 
L 1172 3053 
L 1172 1153 
Q 1172 725 1289 603 
Q 1406 481 1766 481 
L 2356 481 
L 2356 0 
L 1766 0 
Q 1100 0 847 248 
Q 594 497 594 1153 
L 594 3053 
L 172 3053 
L 172 3500 
L 594 3500 
L 594 4494 
L 1172 4494 
z
" transform="scale(0.015625)"/>
        <path id="DejaVuSans-6f" d="M 1959 3097 
Q 1497 3097 1228 2736 
Q 959 2375 959 1747 
Q 959 1119 1226 758 
Q 1494 397 1959 397 
Q 2419 397 2687 759 
Q 2956 1122 2956 1747 
Q 2956 2369 2687 2733 
Q 2419 3097 1959 3097 
z
M 1959 3584 
Q 2709 3584 3137 3096 
Q 3566 2609 3566 1747 
Q 3566 888 3137 398 
Q 2709 -91 1959 -91 
Q 1206 -91 779 398 
Q 353 888 353 1747 
Q 353 2609 779 3096 
Q 1206 3584 1959 3584 
z
" transform="scale(0.015625)"/>
        <path id="DejaVuSans-6e" d="M 3513 2113 
L 3513 0 
L 2938 0 
L 2938 2094 
Q 2938 2591 2744 2837 
Q 2550 3084 2163 3084 
Q 1697 3084 1428 2787 
Q 1159 2491 1159 1978 
L 1159 0 
L 581 0 
L 581 3500 
L 1159 3500 
L 1159 2956 
Q 1366 3272 1645 3428 
Q 1925 3584 2291 3584 
Q 2894 3584 3203 3211 
Q 3513 2838 3513 2113 
z
" transform="scale(0.015625)"/>
       </defs>
       <use xlink:href="#DejaVuSans-62"/>
       <use xlink:href="#DejaVuSans-61" transform="translate(63.476562 0)"/>
       <use xlink:href="#DejaVuSans-73" transform="translate(124.755859 0)"/>
       <use xlink:href="#DejaVuSans-69" transform="translate(176.855469 0)"/>
       <use xlink:href="#DejaVuSans-63" transform="translate(204.638672 0)"/>
       <use xlink:href="#DejaVuSans-5f" transform="translate(259.619141 0)"/>
       <use xlink:href="#DejaVuSans-76" transform="translate(309.619141 0)"/>
       <use xlink:href="#DejaVuSans-61" transform="translate(368.798828 0)"/>
       <use xlink:href="#DejaVuSans-6c" transform="translate(430.078125 0)"/>
       <use xlink:href="#DejaVuSans-69" transform="translate(457.861328 0)"/>
       <use xlink:href="#DejaVuSans-64" transform="translate(485.644531 0)"/>
       <use xlink:href="#DejaVuSans-61" transform="translate(549.121094 0)"/>
       <use xlink:href="#DejaVuSans-74" transform="translate(610.400391 0)"/>
       <use xlink:href="#DejaVuSans-69" transform="translate(649.609375 0)"/>
       <use xlink:href="#DejaVuSans-6f" transform="translate(677.392578 0)"/>
       <use xlink:href="#DejaVuSans-6e" transform="translate(738.574219 0)"/>
      </g>
     </g>
    </g>
    <g id="xtick_2">
     <g id="line2d_2">
      <g>
       <use xlink:href="#mad7f2876eb" x="251.22125" y="321.879506" style="stroke: #000000; stroke-width: 0.8"/>
      </g>
     </g>
     <g id="text_2">
      <!-- edge_cases -->
      <g transform="translate(223.790241 351.282705) rotate(-15) scale(0.1 -0.1)">
       <defs>
        <path id="DejaVuSans-65" d="M 3597 1894 
L 3597 1613 
L 953 1613 
Q 991 1019 1311 708 
Q 1631 397 2203 397 
Q 2534 397 2845 478 
Q 3156 559 3463 722 
L 3463 178 
Q 3153 47 2828 -22 
Q 2503 -91 2169 -91 
Q 1331 -91 842 396 
Q 353 884 353 1716 
Q 353 2575 817 3079 
Q 1281 3584 2069 3584 
Q 2775 3584 3186 3129 
Q 3597 2675 3597 1894 
z
M 3022 2063 
Q 3016 2534 2758 2815 
Q 2500 3097 2075 3097 
Q 1594 3097 1305 2825 
Q 1016 2553 972 2059 
L 3022 2063 
z
" transform="scale(0.015625)"/>
        <path id="DejaVuSans-67" d="M 2906 1791 
Q 2906 2416 2648 2759 
Q 2391 3103 1925 3103 
Q 1463 3103 1205 2759 
Q 947 2416 947 1791 
Q 947 1169 1205 825 
Q 1463 481 1925 481 
Q 2391 481 2648 825 
Q 2906 1169 2906 1791 
z
M 3481 434 
Q 3481 -459 3084 -895 
Q 2688 -1331 1869 -1331 
Q 1566 -1331 1297 -1286 
Q 1028 -1241 775 -1147 
L 775 -588 
Q 1028 -725 1275 -790 
Q 1522 -856 1778 -856 
Q 2344 -856 2625 -561 
Q 2906 -266 2906 331 
L 2906 616 
Q 2728 306 2450 153 
Q 2172 0 1784 0 
Q 1141 0 747 490 
Q 353 981 353 1791 
Q 353 2603 747 3093 
Q 1141 3584 1784 3584 
Q 2172 3584 2450 3431 
Q 2728 3278 2906 2969 
L 2906 3500 
L 3481 3500 
L 3481 434 
z
" transform="scale(0.015625)"/>
       </defs>
       <use xlink:href="#DejaVuSans-65"/>
       <use xlink:href="#DejaVuSans-64" transform="translate(61.523438 0)"/>
       <use xlink:href="#DejaVuSans-67" transform="translate(125 0)"/>
       <use xlink:href="#DejaVuSans-65" transform="translate(188.476562 0)"/>
       <use xlink:href="#DejaVuSans-5f" transform="translate(250 0)"/>
       <use xlink:href="#DejaVuSans-63" transform="translate(300 0)"/>
       <use xlink:href="#DejaVuSans-61" transform="translate(354.980469 0)"/>
       <use xlink:href="#DejaVuSans-73" transform="translate(416.259766 0)"/>
       <use xlink:href="#DejaVuSans-65" transform="translate(468.359375 0)"/>
       <use xlink:href="#DejaVuSans-73" transform="translate(529.882812 0)"/>
      </g>
     </g>
    </g>
    <g id="xtick_3">
     <g id="line2d_3">
      <g>
       <use xlink:href="#mad7f2876eb" x="385.922549" y="321.879506" style="stroke: #000000; stroke-width: 0.8"/>
      </g>
     </g>
     <g id="text_3">
      <!-- security_workflows -->
      <g transform="translate(340.753217 360.788644) rotate(-15) scale(0.1 -0.1)">
       <defs>
        <path id="DejaVuSans-75" d="M 544 1381 
L 544 3500 
L 1119 3500 
L 1119 1403 
Q 1119 906 1312 657 
Q 1506 409 1894 409 
Q 2359 409 2629 706 
Q 2900 1003 2900 1516 
L 2900 3500 
L 3475 3500 
L 3475 0 
L 2900 0 
L 2900 538 
Q 2691 219 2414 64 
Q 2138 -91 1772 -91 
Q 1169 -91 856 284 
Q 544 659 544 1381 
z
M 1991 3584 
L 1991 3584 
z
" transform="scale(0.015625)"/>
        <path id="DejaVuSans-72" d="M 2631 2963 
Q 2534 3019 2420 3045 
Q 2306 3072 2169 3072 
Q 1681 3072 1420 2755 
Q 1159 2438 1159 1844 
L 1159 0 
L 581 0 
L 581 3500 
L 1159 3500 
L 1159 2956 
Q 1341 3275 1631 3429 
Q 1922 3584 2338 3584 
Q 2397 3584 2469 3576 
Q 2541 3569 2628 3553 
L 2631 2963 
z
" transform="scale(0.015625)"/>
        <path id="DejaVuSans-79" d="M 2059 -325 
Q 1816 -950 1584 -1140 
Q 1353 -1331 966 -1331 
L 506 -1331 
L 506 -850 
L 844 -850 
Q 1081 -850 1212 -737 
Q 1344 -625 1503 -206 
L 1606 56 
L 191 3500 
L 800 3500 
L 1894 763 
L 2988 3500 
L 3597 3500 
L 2059 -325 
z
" transform="scale(0.015625)"/>
        <path id="DejaVuSans-77" d="M 269 3500 
L 844 3500 
L 1563 769 
L 2278 3500 
L 2956 3500 
L 3675 769 
L 4391 3500 
L 4966 3500 
L 4050 0 
L 3372 0 
L 2619 2869 
L 1863 0 
L 1184 0 
L 269 3500 
z
" transform="scale(0.015625)"/>
        <path id="DejaVuSans-6b" d="M 581 4863 
L 1159 4863 
L 1159 1991 
L 2875 3500 
L 3609 3500 
L 1753 1863 
L 3688 0 
L 2938 0 
L 1159 1709 
L 1159 0 
L 581 0 
L 581 4863 
z
" transform="scale(0.015625)"/>
        <path id="DejaVuSans-66" d="M 2375 4863 
L 2375 4384 
L 1825 4384 
Q 1516 4384 1395 4259 
Q 1275 4134 1275 3809 
L 1275 3500 
L 2222 3500 
L 2222 3053 
L 1275 3053 
L 1275 0 
L 697 0 
L 697 3053 
L 147 3053 
L 147 3500 
L 697 3500 
L 697 3744 
Q 697 4328 969 4595 
Q 1241 4863 1831 4863 
L 2375 4863 
z
" transform="scale(0.015625)"/>
       </defs>
       <use xlink:href="#DejaVuSans-73"/>
       <use xlink:href="#DejaVuSans-65" transform="translate(52.099609 0)"/>
       <use xlink:href="#DejaVuSans-63" transform="translate(113.623047 0)"/>
       <use xlink:href="#DejaVuSans-75" transform="translate(168.603516 0)"/>
       <use xlink:href="#DejaVuSans-72" transform="translate(231.982422 0)"/>
       <use xlink:href="#DejaVuSans-69" transform="translate(273.095703 0)"/>
       <use xlink:href="#DejaVuSans-74" transform="translate(300.878906 0)"/>
       <use xlink:href="#DejaVuSans-79" transform="translate(340.087891 0)"/>
       <use xlink:href="#DejaVuSans-5f" transform="translate(399.267578 0)"/>
       <use xlink:href="#DejaVuSans-77" transform="translate(449.267578 0)"/>
       <use xlink:href="#DejaVuSans-6f" transform="translate(531.054688 0)"/>
       <use xlink:href="#DejaVuSans-72" transform="translate(592.236328 0)"/>
       <use xlink:href="#DejaVuSans-6b" transform="translate(633.349609 0)"/>
       <use xlink:href="#DejaVuSans-66" transform="translate(691.259766 0)"/>
       <use xlink:href="#DejaVuSans-6c" transform="translate(726.464844 0)"/>
       <use xlink:href="#DejaVuSans-6f" transform="translate(754.248047 0)"/>
       <use xlink:href="#DejaVuSans-77" transform="translate(815.429688 0)"/>
       <use xlink:href="#DejaVuSans-73" transform="translate(897.216797 0)"/>
      </g>
     </g>
    </g>
   </g>
   <g id="matplotlib.axis_2">
    <g id="ytick_1">
     <g id="line2d_4">
      <defs>
       <path id="me4b84c83d4" d="M 0 0 
L -3.5 0 
" style="stroke: #000000; stroke-width: 0.8"/>
      </defs>
      <g>
       <use xlink:href="#me4b84c83d4" x="43.78125" y="321.879506" style="stroke: #000000; stroke-width: 0.8"/>
      </g>
     </g>
     <g id="text_4">
      <!-- 0.0 -->
      <g transform="translate(20.878125 325.678724) scale(0.1 -0.1)">
       <defs>
        <path id="DejaVuSans-30" d="M 2034 4250 
Q 1547 4250 1301 3770 
Q 1056 3291 1056 2328 
Q 1056 1369 1301 889 
Q 1547 409 2034 409 
Q 2525 409 2770 889 
Q 3016 1369 3016 2328 
Q 3016 3291 2770 3770 
Q 2525 4250 2034 4250 
z
M 2034 4750 
Q 2819 4750 3233 4129 
Q 3647 3509 3647 2328 
Q 3647 1150 3233 529 
Q 2819 -91 2034 -91 
Q 1250 -91 836 529 
Q 422 1150 422 2328 
Q 422 3509 836 4129 
Q 1250 4750 2034 4750 
z
" transform="scale(0.015625)"/>
        <path id="DejaVuSans-2e" d="M 684 794 
L 1344 794 
L 1344 0 
L 684 0 
L 684 794 
z
" transform="scale(0.015625)"/>
       </defs>
       <use xlink:href="#DejaVuSans-30"/>
       <use xlink:href="#DejaVuSans-2e" transform="translate(63.623047 0)"/>
       <use xlink:href="#DejaVuSans-30" transform="translate(95.410156 0)"/>
      </g>
     </g>
    </g>
    <g id="ytick_2">
     <g id="line2d_5">
      <g>
       <use xlink:href="#me4b84c83d4" x="43.78125" y="270.569205" style="stroke: #000000; stroke-width: 0.8"/>
      </g>
     </g>
     <g id="text_5">
      <!-- 0.2 -->
      <g transform="translate(20.878125 274.368423) scale(0.1 -0.1)">
       <defs>
        <path id="DejaVuSans-32" d="M 1228 531 
L 3431 531 
L 3431 0 
L 469 0 
L 469 531 
Q 828 903 1448 1529 
Q 2069 2156 2228 2338 
Q 2531 2678 2651 2914 
Q 2772 3150 2772 3378 
Q 2772 3750 2511 3984 
Q 2250 4219 1831 4219 
Q 1534 4219 1204 4116 
Q 875 4013 500 3803 
L 500 4441 
Q 881 4594 1212 4672 
Q 1544 4750 1819 4750 
Q 2544 4750 2975 4387 
Q 3406 4025 3406 3419 
Q 3406 3131 3298 2873 
Q 3191 2616 2906 2266 
Q 2828 2175 2409 1742 
Q 1991 1309 1228 531 
z
" transform="scale(0.015625)"/>
       </defs>
       <use xlink:href="#DejaVuSans-30"/>
       <use xlink:href="#DejaVuSans-2e" transform="translate(63.623047 0)"/>
       <use xlink:href="#DejaVuSans-32" transform="translate(95.410156 0)"/>
      </g>
     </g>
    </g>
    <g id="ytick_3">
     <g id="line2d_6">
      <g>
       <use xlink:href="#me4b84c83d4" x="43.78125" y="219.258903" style="stroke: #000000; stroke-width: 0.8"/>
      </g>
     </g>
     <g id="text_6">
      <!-- 0.4 -->
      <g transform="translate(20.878125 223.058122) scale(0.1 -0.1)">
       <defs>
        <path id="DejaVuSans-34" d="M 2419 4116 
L 825 1625 
L 2419 1625 
L 2419 4116 
z
M 2253 4666 
L 3047 4666 
L 3047 1625 
L 3713 1625 
L 3713 1100 
L 3047 1100 
L 3047 0 
L 2419 0 
L 2419 1100 
L 313 1100 
L 313 1709 
L 2253 4666 
z
" transform="scale(0.015625)"/>
       </defs>
       <use xlink:href="#DejaVuSans-30"/>
       <use xlink:href="#DejaVuSans-2e" transform="translate(63.623047 0)"/>
       <use xlink:href="#DejaVuSans-34" transform="translate(95.410156 0)"/>
      </g>
     </g>
    </g>
    <g id="ytick_4">
     <g id="line2d_7">
      <g>
       <use xlink:href="#me4b84c83d4" x="43.78125" y="167.948602" style="stroke: #000000; stroke-width: 0.8"/>
      </g>
     </g>
     <g id="text_7">
      <!-- 0.6 -->
      <g transform="translate(20.878125 171.747821) scale(0.1 -0.1)">
       <defs>
        <path id="DejaVuSans-36" d="M 2113 2584 
Q 1688 2584 1439 2293 
Q 1191 2003 1191 1497 
Q 1191 994 1439 701 
Q 1688 409 2113 409 
Q 2538 409 2786 701 
Q 3034 994 3034 1497 
Q 3034 2003 2786 2293 
Q 2538 2584 2113 2584 
z
M 3366 4563 
L 3366 3988 
Q 3128 4100 2886 4159 
Q 2644 4219 2406 4219 
Q 1781 4219 1451 3797 
Q 1122 3375 1075 2522 
Q 1259 2794 1537 2939 
Q 1816 3084 2150 3084 
Q 2853 3084 3261 2657 
Q 3669 2231 3669 1497 
Q 3669 778 3244 343 
Q 2819 -91 2113 -91 
Q 1303 -91 875 529 
Q 447 1150 447 2328 
Q 447 3434 972 4092 
Q 1497 4750 2381 4750 
Q 2619 4750 2861 4703 
Q 3103 4656 3366 4563 
z
" transform="scale(0.015625)"/>
       </defs>
       <use xlink:href="#DejaVuSans-30"/>
       <use xlink:href="#DejaVuSans-2e" transform="translate(63.623047 0)"/>
       <use xlink:href="#DejaVuSans-36" transform="translate(95.410156 0)"/>
      </g>
     </g>
    </g>
    <g id="ytick_5">
     <g id="line2d_8">
      <g>
       <use xlink:href="#me4b84c83d4" x="43.78125" y="116.638301" style="stroke: #000000; stroke-width: 0.8"/>
      </g>
     </g>
     <g id="text_8">
      <!-- 0.8 -->
      <g transform="translate(20.878125 120.43752) scale(0.1 -0.1)">
       <defs>
        <path id="DejaVuSans-38" d="M 2034 2216 
Q 1584 2216 1326 1975 
Q 1069 1734 1069 1313 
Q 1069 891 1326 650 
Q 1584 409 2034 409 
Q 2484 409 2743 651 
Q 3003 894 3003 1313 
Q 3003 1734 2745 1975 
Q 2488 2216 2034 2216 
z
M 1403 2484 
Q 997 2584 770 2862 
Q 544 3141 544 3541 
Q 544 4100 942 4425 
Q 1341 4750 2034 4750 
Q 2731 4750 3128 4425 
Q 3525 4100 3525 3541 
Q 3525 3141 3298 2862 
Q 3072 2584 2669 2484 
Q 3125 2378 3379 2068 
Q 3634 1759 3634 1313 
Q 3634 634 3220 271 
Q 2806 -91 2034 -91 
Q 1263 -91 848 271 
Q 434 634 434 1313 
Q 434 1759 690 2068 
Q 947 2378 1403 2484 
z
M 1172 3481 
Q 1172 3119 1398 2916 
Q 1625 2713 2034 2713 
Q 2441 2713 2670 2916 
Q 2900 3119 2900 3481 
Q 2900 3844 2670 4047 
Q 2441 4250 2034 4250 
Q 1625 4250 1398 4047 
Q 1172 3844 1172 3481 
z
" transform="scale(0.015625)"/>
       </defs>
       <use xlink:href="#DejaVuSans-30"/>
       <use xlink:href="#DejaVuSans-2e" transform="translate(63.623047 0)"/>
       <use xlink:href="#DejaVuSans-38" transform="translate(95.410156 0)"/>
      </g>
     </g>
    </g>
    <g id="ytick_6">
     <g id="line2d_9">
      <g>
       <use xlink:href="#me4b84c83d4" x="43.78125" y="65.328" style="stroke: #000000; stroke-width: 0.8"/>
      </g>
     </g>
     <g id="text_9">
      <!-- 1.0 -->
      <g transform="translate(20.878125 69.127219) scale(0.1 -0.1)">
       <defs>
        <path id="DejaVuSans-31" d="M 794 531 
L 1825 531 
L 1825 4091 
L 703 3866 
L 703 4441 
L 1819 4666 
L 2450 4666 
L 2450 531 
L 3481 531 
L 3481 0 
L 794 0 
L 794 531 
z
" transform="scale(0.015625)"/>
       </defs>
       <use xlink:href="#DejaVuSans-31"/>
       <use xlink:href="#DejaVuSans-2e" transform="translate(63.623047 0)"/>
       <use xlink:href="#DejaVuSans-30" transform="translate(95.410156 0)"/>
      </g>
     </g>
    </g>
    <g id="text_10">
     <!-- Final score -->
     <g transform="translate(14.798438 220.149847) rotate(-90) scale(0.1 -0.1)">
      <defs>
       <path id="DejaVuSans-46" d="M 628 4666 
L 3309 4666 
L 3309 4134 
L 1259 4134 
L 1259 2759 
L 3109 2759 
L 3109 2228 
L 1259 2228 
L 1259 0 
L 628 0 
L 628 4666 
z
" transform="scale(0.015625)"/>
       <path id="DejaVuSans-20" transform="scale(0.015625)"/>
      </defs>
      <use xlink:href="#DejaVuSans-46"/>
      <use xlink:href="#DejaVuSans-69" transform="translate(50.269531 0)"/>
      <use xlink:href="#DejaVuSans-6e" transform="translate(78.052734 0)"/>
      <use xlink:href="#DejaVuSans-61" transform="translate(141.431641 0)"/>
      <use xlink:href="#DejaVuSans-6c" transform="translate(202.710938 0)"/>
      <use xlink:href="#DejaVuSans-20" transform="translate(230.494141 0)"/>
      <use xlink:href="#DejaVuSans-73" transform="translate(262.28125 0)"/>
      <use xlink:href="#DejaVuSans-63" transform="translate(314.380859 0)"/>
      <use xlink:href="#DejaVuSans-6f" transform="translate(369.361328 0)"/>
      <use xlink:href="#DejaVuSans-72" transform="translate(430.542969 0)"/>
      <use xlink:href="#DejaVuSans-65" transform="translate(469.40625 0)"/>
     </g>
    </g>
   </g>
   <g id="line2d_10">
    <path d="M 43.78125 150.759651 
L 458.66125 150.759651 
" clip-path="url(#p9a5afb56bb)" style="fill: none; stroke-dasharray: 4.44,1.92; stroke-dashoffset: 0; stroke: #333333; stroke-width: 1.2"/>
   </g>
   <g id="patch_6">
    <path d="M 43.78125 321.879506 
L 43.78125 65.328 
" style="fill: none; stroke: #000000; stroke-width: 0.8; stroke-linejoin: miter; stroke-linecap: square"/>
   </g>
   <g id="patch_7">
    <path d="M 458.66125 321.879506 
L 458.66125 65.328 
" style="fill: none; stroke: #000000; stroke-width: 0.8; stroke-linejoin: miter; stroke-linecap: square"/>
   </g>
   <g id="patch_8">
    <path d="M 43.78125 321.879506 
L 458.66125 321.879506 
" style="fill: none; stroke: #000000; stroke-width: 0.8; stroke-linejoin: miter; stroke-linecap: square"/>
   </g>
   <g id="patch_9">
    <path d="M 43.78125 65.328 
L 458.66125 65.328 
" style="fill: none; stroke: #000000; stroke-width: 0.8; stroke-linejoin: miter; stroke-linecap: square"/>
   </g>
   <g id="text_11">
    <!-- 0.647 -->
    <g transform="translate(103.637295 140.092659) scale(0.09 -0.09)">
     <defs>
      <path id="DejaVuSans-37" d="M 525 4666 
L 3525 4666 
L 3525 4397 
L 1831 0 
L 1172 0 
L 2766 4134 
L 525 4134 
L 525 4666 
z
" transform="scale(0.015625)"/>
     </defs>
     <use xlink:href="#DejaVuSans-30"/>
     <use xlink:href="#DejaVuSans-2e" transform="translate(63.623047 0)"/>
     <use xlink:href="#DejaVuSans-36" transform="translate(95.410156 0)"/>
     <use xlink:href="#DejaVuSans-34" transform="translate(159.033203 0)"/>
     <use xlink:href="#DejaVuSans-37" transform="translate(222.65625 0)"/>
    </g>
    <!-- (18 steps) -->
    <g transform="translate(93.773858 150.17069) scale(0.09 -0.09)">
     <defs>
      <path id="DejaVuSans-28" d="M 1984 4856 
Q 1566 4138 1362 3434 
Q 1159 2731 1159 2009 
Q 1159 1288 1364 580 
Q 1569 -128 1984 -844 
L 1484 -844 
Q 1016 -109 783 600 
Q 550 1309 550 2009 
Q 550 2706 781 3412 
Q 1013 4119 1484 4856 
L 1984 4856 
z
" transform="scale(0.015625)"/>
      <path id="DejaVuSans-70" d="M 1159 525 
L 1159 -1331 
L 581 -1331 
L 581 3500 
L 1159 3500 
L 1159 2969 
Q 1341 3281 1617 3432 
Q 1894 3584 2278 3584 
Q 2916 3584 3314 3078 
Q 3713 2572 3713 1747 
Q 3713 922 3314 415 
Q 2916 -91 2278 -91 
Q 1894 -91 1617 61 
Q 1341 213 1159 525 
z
M 3116 1747 
Q 3116 2381 2855 2742 
Q 2594 3103 2138 3103 
Q 1681 3103 1420 2742 
Q 1159 2381 1159 1747 
Q 1159 1113 1420 752 
Q 1681 391 2138 391 
Q 2594 391 2855 752 
Q 3116 1113 3116 1747 
z
" transform="scale(0.015625)"/>
      <path id="DejaVuSans-29" d="M 513 4856 
L 1013 4856 
Q 1481 4119 1714 3412 
Q 1947 2706 1947 2009 
Q 1947 1309 1714 600 
Q 1481 -109 1013 -844 
L 513 -844 
Q 928 -128 1133 580 
Q 1338 1288 1338 2009 
Q 1338 2731 1133 3434 
Q 928 4138 513 4856 
z
" transform="scale(0.015625)"/>
     </defs>
     <use xlink:href="#DejaVuSans-28"/>
     <use xlink:href="#DejaVuSans-31" transform="translate(39.013672 0)"/>
     <use xlink:href="#DejaVuSans-38" transform="translate(102.636719 0)"/>
     <use xlink:href="#DejaVuSans-20" transform="translate(166.259766 0)"/>
     <use xlink:href="#DejaVuSans-73" transform="translate(198.046875 0)"/>
     <use xlink:href="#DejaVuSans-74" transform="translate(250.146484 0)"/>
     <use xlink:href="#DejaVuSans-65" transform="translate(289.355469 0)"/>
     <use xlink:href="#DejaVuSans-70" transform="translate(350.878906 0)"/>
     <use xlink:href="#DejaVuSans-73" transform="translate(414.355469 0)"/>
     <use xlink:href="#DejaVuSans-29" transform="translate(466.455078 0)"/>
    </g>
   </g>
   <g id="text_12">
    <!-- 0.772 -->
    <g transform="translate(238.338594 108.023721) scale(0.09 -0.09)">
     <use xlink:href="#DejaVuSans-30"/>
     <use xlink:href="#DejaVuSans-2e" transform="translate(63.623047 0)"/>
     <use xlink:href="#DejaVuSans-37" transform="translate(95.410156 0)"/>
     <use xlink:href="#DejaVuSans-37" transform="translate(159.033203 0)"/>
     <use xlink:href="#DejaVuSans-32" transform="translate(222.65625 0)"/>
    </g>
    <!-- (27 steps) -->
    <g transform="translate(228.475156 118.101752) scale(0.09 -0.09)">
     <use xlink:href="#DejaVuSans-28"/>
     <use xlink:href="#DejaVuSans-32" transform="translate(39.013672 0)"/>
     <use xlink:href="#DejaVuSans-37" transform="translate(102.636719 0)"/>
     <use xlink:href="#DejaVuSans-20" transform="translate(166.259766 0)"/>
     <use xlink:href="#DejaVuSans-73" transform="translate(198.046875 0)"/>
     <use xlink:href="#DejaVuSans-74" transform="translate(250.146484 0)"/>
     <use xlink:href="#DejaVuSans-65" transform="translate(289.355469 0)"/>
     <use xlink:href="#DejaVuSans-70" transform="translate(350.878906 0)"/>
     <use xlink:href="#DejaVuSans-73" transform="translate(414.355469 0)"/>
     <use xlink:href="#DejaVuSans-29" transform="translate(466.455078 0)"/>
    </g>
   </g>
   <g id="text_13">
    <!-- 0.581 -->
    <g transform="translate(373.039892 157.025058) scale(0.09 -0.09)">
     <defs>
      <path id="DejaVuSans-35" d="M 691 4666 
L 3169 4666 
L 3169 4134 
L 1269 4134 
L 1269 2991 
Q 1406 3038 1543 3061 
Q 1681 3084 1819 3084 
Q 2600 3084 3056 2656 
Q 3513 2228 3513 1497 
Q 3513 744 3044 326 
Q 2575 -91 1722 -91 
Q 1428 -91 1123 -41 
Q 819 9 494 109 
L 494 744 
Q 775 591 1075 516 
Q 1375 441 1709 441 
Q 2250 441 2565 725 
Q 2881 1009 2881 1497 
Q 2881 1984 2565 2268 
Q 2250 2553 1709 2553 
Q 1456 2553 1204 2497 
Q 953 2441 691 2322 
L 691 4666 
z
" transform="scale(0.015625)"/>
     </defs>
     <use xlink:href="#DejaVuSans-30"/>
     <use xlink:href="#DejaVuSans-2e" transform="translate(63.623047 0)"/>
     <use xlink:href="#DejaVuSans-35" transform="translate(95.410156 0)"/>
     <use xlink:href="#DejaVuSans-38" transform="translate(159.033203 0)"/>
     <use xlink:href="#DejaVuSans-31" transform="translate(222.65625 0)"/>
    </g>
    <!-- (29 steps) -->
    <g transform="translate(363.176455 167.10309) scale(0.09 -0.09)">
     <defs>
      <path id="DejaVuSans-39" d="M 703 97 
L 703 672 
Q 941 559 1184 500 
Q 1428 441 1663 441 
Q 2288 441 2617 861 
Q 2947 1281 2994 2138 
Q 2813 1869 2534 1725 
Q 2256 1581 1919 1581 
Q 1219 1581 811 2004 
Q 403 2428 403 3163 
Q 403 3881 828 4315 
Q 1253 4750 1959 4750 
Q 2769 4750 3195 4129 
Q 3622 3509 3622 2328 
Q 3622 1225 3098 567 
Q 2575 -91 1691 -91 
Q 1453 -91 1209 -44 
Q 966 3 703 97 
z
M 1959 2075 
Q 2384 2075 2632 2365 
Q 2881 2656 2881 3163 
Q 2881 3666 2632 3958 
Q 2384 4250 1959 4250 
Q 1534 4250 1286 3958 
Q 1038 3666 1038 3163 
Q 1038 2656 1286 2365 
Q 1534 2075 1959 2075 
z
" transform="scale(0.015625)"/>
     </defs>
     <use xlink:href="#DejaVuSans-28"/>
     <use xlink:href="#DejaVuSans-32" transform="translate(39.013672 0)"/>
     <use xlink:href="#DejaVuSans-39" transform="translate(102.636719 0)"/>
     <use xlink:href="#DejaVuSans-20" transform="translate(166.259766 0)"/>
     <use xlink:href="#DejaVuSans-73" transform="translate(198.046875 0)"/>
     <use xlink:href="#DejaVuSans-74" transform="translate(250.146484 0)"/>
     <use xlink:href="#DejaVuSans-65" transform="translate(289.355469 0)"/>
     <use xlink:href="#DejaVuSans-70" transform="translate(350.878906 0)"/>
     <use xlink:href="#DejaVuSans-73" transform="translate(414.355469 0)"/>
     <use xlink:href="#DejaVuSans-29" transform="translate(466.455078 0)"/>
    </g>
   </g>
   <g id="text_14">
    <!-- Inference final score by task -->
    <g transform="translate(166.36625 59.328) scale(0.12 -0.12)">
     <defs>
      <path id="DejaVuSans-49" d="M 628 4666 
L 1259 4666 
L 1259 0 
L 628 0 
L 628 4666 
z
" transform="scale(0.015625)"/>
     </defs>
     <use xlink:href="#DejaVuSans-49"/>
     <use xlink:href="#DejaVuSans-6e" transform="translate(29.492188 0)"/>
     <use xlink:href="#DejaVuSans-66" transform="translate(92.871094 0)"/>
     <use xlink:href="#DejaVuSans-65" transform="translate(128.076172 0)"/>
     <use xlink:href="#DejaVuSans-72" transform="translate(189.599609 0)"/>
     <use xlink:href="#DejaVuSans-65" transform="translate(228.462891 0)"/>
     <use xlink:href="#DejaVuSans-6e" transform="translate(289.986328 0)"/>
     <use xlink:href="#DejaVuSans-63" transform="translate(353.365234 0)"/>
     <use xlink:href="#DejaVuSans-65" transform="translate(408.345703 0)"/>
     <use xlink:href="#DejaVuSans-20" transform="translate(469.869141 0)"/>
     <use xlink:href="#DejaVuSans-66" transform="translate(501.65625 0)"/>
     <use xlink:href="#DejaVuSans-69" transform="translate(536.861328 0)"/>
     <use xlink:href="#DejaVuSans-6e" transform="translate(564.644531 0)"/>
     <use xlink:href="#DejaVuSans-61" transform="translate(628.023438 0)"/>
     <use xlink:href="#DejaVuSans-6c" transform="translate(689.302734 0)"/>
     <use xlink:href="#DejaVuSans-20" transform="translate(717.085938 0)"/>
     <use xlink:href="#DejaVuSans-73" transform="translate(748.873047 0)"/>
     <use xlink:href="#DejaVuSans-63" transform="translate(800.972656 0)"/>
     <use xlink:href="#DejaVuSans-6f" transform="translate(855.953125 0)"/>
     <use xlink:href="#DejaVuSans-72" transform="translate(917.134766 0)"/>
     <use xlink:href="#DejaVuSans-65" transform="translate(955.998047 0)"/>
     <use xlink:href="#DejaVuSans-20" transform="translate(1017.521484 0)"/>
     <use xlink:href="#DejaVuSans-62" transform="translate(1049.308594 0)"/>
     <use xlink:href="#DejaVuSans-79" transform="translate(1112.785156 0)"/>
     <use xlink:href="#DejaVuSans-20" transform="translate(1171.964844 0)"/>
     <use xlink:href="#DejaVuSans-74" transform="translate(1203.751953 0)"/>
     <use xlink:href="#DejaVuSans-61" transform="translate(1242.960938 0)"/>
     <use xlink:href="#DejaVuSans-73" transform="translate(1304.240234 0)"/>
     <use xlink:href="#DejaVuSans-6b" transform="translate(1356.339844 0)"/>
    </g>
   </g>
   <g id="legend_1">
    <g id="line2d_11">
     <path d="M 359.901875 78.426438 
L 369.901875 78.426438 
L 379.901875 78.426438 
" style="fill: none; stroke-dasharray: 4.44,1.92; stroke-dashoffset: 0; stroke: #333333; stroke-width: 1.2"/>
    </g>
    <g id="text_15">
     <!-- avg = 0.667 -->
     <g transform="translate(387.901875 81.926438) scale(0.1 -0.1)">
      <defs>
       <path id="DejaVuSans-3d" d="M 678 2906 
L 4684 2906 
L 4684 2381 
L 678 2381 
L 678 2906 
z
M 678 1631 
L 4684 1631 
L 4684 1100 
L 678 1100 
L 678 1631 
z
" transform="scale(0.015625)"/>
      </defs>
      <use xlink:href="#DejaVuSans-61"/>
      <use xlink:href="#DejaVuSans-76" transform="translate(61.279297 0)"/>
      <use xlink:href="#DejaVuSans-67" transform="translate(120.458984 0)"/>
      <use xlink:href="#DejaVuSans-20" transform="translate(183.935547 0)"/>
      <use xlink:href="#DejaVuSans-3d" transform="translate(215.722656 0)"/>
      <use xlink:href="#DejaVuSans-20" transform="translate(299.511719 0)"/>
      <use xlink:href="#DejaVuSans-30" transform="translate(331.298828 0)"/>
      <use xlink:href="#DejaVuSans-2e" transform="translate(394.921875 0)"/>
      <use xlink:href="#DejaVuSans-36" transform="translate(426.708984 0)"/>
      <use xlink:href="#DejaVuSans-36" transform="translate(490.332031 0)"/>
      <use xlink:href="#DejaVuSans-37" transform="translate(553.955078 0)"/>
     </g>
    </g>
   </g>
  </g>
  <g id="axes_2">
   <g id="patch_10">
    <path d="M 506.38125 321.879506 
L 921.26125 321.879506 
L 921.26125 65.328 
L 506.38125 65.328 
z
" style="fill: #ffffff"/>
   </g>
   <g id="patch_11">
    <path d="M 525.239432 288.215372 
L 528.774114 288.215372 
L 528.774114 142.997538 
L 525.239432 142.997538 
z
" clip-path="url(#p25fb33ca69)" style="fill: #4c72b0; stroke: #000000; stroke-width: 0.3; stroke-linejoin: miter"/>
   </g>
   <g id="patch_12">
    <path d="M 538.330846 288.215372 
L 541.865528 288.215372 
L 541.865528 187.002942 
L 538.330846 187.002942 
z
" clip-path="url(#p25fb33ca69)" style="fill: #4c72b0; stroke: #000000; stroke-width: 0.3; stroke-linejoin: miter"/>
   </g>
   <g id="patch_13">
    <path d="M 551.42226 288.215372 
L 554.956942 288.215372 
L 554.956942 165.00024 
L 551.42226 165.00024 
z
" clip-path="url(#p25fb33ca69)" style="fill: #4c72b0; stroke: #000000; stroke-width: 0.3; stroke-linejoin: miter"/>
   </g>
   <g id="patch_14">
    <path d="M 564.513674 288.215372 
L 568.048355 288.215372 
L 568.048355 209.005644 
L 564.513674 209.005644 
z
" clip-path="url(#p25fb33ca69)" style="fill: #4c72b0; stroke: #000000; stroke-width: 0.3; stroke-linejoin: miter"/>
   </g>
   <g id="patch_15">
    <path d="M 577.605088 288.215372 
L 581.139769 288.215372 
L 581.139769 231.008346 
L 577.605088 231.008346 
z
" clip-path="url(#p25fb33ca69)" style="fill: #4c72b0; stroke: #000000; stroke-width: 0.3; stroke-linejoin: miter"/>
   </g>
   <g id="patch_16">
    <path d="M 590.696502 288.215372 
L 594.231183 288.215372 
L 594.231183 165.00024 
L 590.696502 165.00024 
z
" clip-path="url(#p25fb33ca69)" style="fill: #4c72b0; stroke: #000000; stroke-width: 0.3; stroke-linejoin: miter"/>
   </g>
   <g id="patch_17">
    <path d="M 603.787916 288.215372 
L 607.322597 288.215372 
L 607.322597 178.201861 
L 603.787916 178.201861 
z
" clip-path="url(#p25fb33ca69)" style="fill: #4c72b0; stroke: #000000; stroke-width: 0.3; stroke-linejoin: miter"/>
   </g>
   <g id="patch_18">
    <path d="M 616.87933 288.215372 
L 620.414011 288.215372 
L 620.414011 165.00024 
L 616.87933 165.00024 
z
" clip-path="url(#p25fb33ca69)" style="fill: #4c72b0; stroke: #000000; stroke-width: 0.3; stroke-linejoin: miter"/>
   </g>
   <g id="patch_19">
    <path d="M 629.970744 288.215372 
L 633.505425 288.215372 
L 633.505425 165.00024 
L 629.970744 165.00024 
z
" clip-path="url(#p25fb33ca69)" style="fill: #4c72b0; stroke: #000000; stroke-width: 0.3; stroke-linejoin: miter"/>
   </g>
   <g id="patch_20">
    <path d="M 643.062158 288.215372 
L 646.596839 288.215372 
L 646.596839 209.005644 
L 643.062158 209.005644 
z
" clip-path="url(#p25fb33ca69)" style="fill: #4c72b0; stroke: #000000; stroke-width: 0.3; stroke-linejoin: miter"/>
   </g>
   <g id="patch_21">
    <path d="M 656.153571 288.215372 
L 659.688253 288.215372 
L 659.688253 187.002942 
L 656.153571 187.002942 
z
" clip-path="url(#p25fb33ca69)" style="fill: #4c72b0; stroke: #000000; stroke-width: 0.3; stroke-linejoin: miter"/>
   </g>
   <g id="patch_22">
    <path d="M 669.244985 288.215372 
L 672.779667 288.215372 
L 672.779667 142.997538 
L 669.244985 142.997538 
z
" clip-path="url(#p25fb33ca69)" style="fill: #4c72b0; stroke: #000000; stroke-width: 0.3; stroke-linejoin: miter"/>
   </g>
   <g id="patch_23">
    <path d="M 682.336399 288.215372 
L 685.871081 288.215372 
L 685.871081 231.008346 
L 682.336399 231.008346 
z
" clip-path="url(#p25fb33ca69)" style="fill: #4c72b0; stroke: #000000; stroke-width: 0.3; stroke-linejoin: miter"/>
   </g>
   <g id="patch_24">
    <path d="M 695.427813 288.215372 
L 698.962495 288.215372 
L 698.962495 275.01375 
L 695.427813 275.01375 
z
" clip-path="url(#p25fb33ca69)" style="fill: #4c72b0; stroke: #000000; stroke-width: 0.3; stroke-linejoin: miter"/>
   </g>
   <g id="patch_25">
    <path d="M 708.519227 288.215372 
L 712.053909 288.215372 
L 712.053909 275.01375 
L 708.519227 275.01375 
z
" clip-path="url(#p25fb33ca69)" style="fill: #4c72b0; stroke: #000000; stroke-width: 0.3; stroke-linejoin: miter"/>
   </g>
   <g id="patch_26">
    <path d="M 721.610641 288.215372 
L 725.145323 288.215372 
L 725.145323 231.008346 
L 721.610641 231.008346 
z
" clip-path="url(#p25fb33ca69)" style="fill: #4c72b0; stroke: #000000; stroke-width: 0.3; stroke-linejoin: miter"/>
   </g>
   <g id="patch_27">
    <path d="M 734.702055 288.215372 
L 738.236737 288.215372 
L 738.236737 310.218074 
L 734.702055 310.218074 
z
" clip-path="url(#p25fb33ca69)" style="fill: #4c72b0; stroke: #000000; stroke-width: 0.3; stroke-linejoin: miter"/>
   </g>
   <g id="patch_28">
    <path d="M 747.793469 288.215372 
L 751.328151 288.215372 
L 751.328151 275.01375 
L 747.793469 275.01375 
z
" clip-path="url(#p25fb33ca69)" style="fill: #4c72b0; stroke: #000000; stroke-width: 0.3; stroke-linejoin: miter"/>
   </g>
   <g id="patch_29">
    <path d="M 528.774114 288.215372 
L 532.308795 288.215372 
L 532.308795 142.997538 
L 528.774114 142.997538 
z
" clip-path="url(#p25fb33ca69)" style="fill: #55a868; stroke: #000000; stroke-width: 0.3; stroke-linejoin: miter"/>
   </g>
   <g id="patch_30">
    <path d="M 541.865528 288.215372 
L 545.400209 288.215372 
L 545.400209 165.00024 
L 541.865528 165.00024 
z
" clip-path="url(#p25fb33ca69)" style="fill: #55a868; stroke: #000000; stroke-width: 0.3; stroke-linejoin: miter"/>
   </g>
   <g id="patch_31">
    <path d="M 554.956942 288.215372 
L 558.491623 288.215372 
L 558.491623 165.00024 
L 554.956942 165.00024 
z
" clip-path="url(#p25fb33ca69)" style="fill: #55a868; stroke: #000000; stroke-width: 0.3; stroke-linejoin: miter"/>
   </g>
   <g id="patch_32">
    <path d="M 568.048355 288.215372 
L 571.583037 288.215372 
L 571.583037 253.011048 
L 568.048355 253.011048 
z
" clip-path="url(#p25fb33ca69)" style="fill: #55a868; stroke: #000000; stroke-width: 0.3; stroke-linejoin: miter"/>
   </g>
   <g id="patch_33">
    <path d="M 581.139769 288.215372 
L 584.674451 288.215372 
L 584.674451 209.005644 
L 581.139769 209.005644 
z
" clip-path="url(#p25fb33ca69)" style="fill: #55a868; stroke: #000000; stroke-width: 0.3; stroke-linejoin: miter"/>
   </g>
   <g id="patch_34">
    <path d="M 594.231183 288.215372 
L 597.765865 288.215372 
L 597.765865 178.201861 
L 594.231183 178.201861 
z
" clip-path="url(#p25fb33ca69)" style="fill: #55a868; stroke: #000000; stroke-width: 0.3; stroke-linejoin: miter"/>
   </g>
   <g id="patch_35">
    <path d="M 607.322597 288.215372 
L 610.857279 288.215372 
L 610.857279 76.989432 
L 607.322597 76.989432 
z
" clip-path="url(#p25fb33ca69)" style="fill: #55a868; stroke: #000000; stroke-width: 0.3; stroke-linejoin: miter"/>
   </g>
   <g id="patch_36">
    <path d="M 620.414011 288.215372 
L 623.948693 288.215372 
L 623.948693 165.00024 
L 620.414011 165.00024 
z
" clip-path="url(#p25fb33ca69)" style="fill: #55a868; stroke: #000000; stroke-width: 0.3; stroke-linejoin: miter"/>
   </g>
   <g id="patch_37">
    <path d="M 633.505425 288.215372 
L 637.040107 288.215372 
L 637.040107 142.997538 
L 633.505425 142.997538 
z
" clip-path="url(#p25fb33ca69)" style="fill: #55a868; stroke: #000000; stroke-width: 0.3; stroke-linejoin: miter"/>
   </g>
   <g id="patch_38">
    <path d="M 646.596839 288.215372 
L 650.131521 288.215372 
L 650.131521 253.011048 
L 646.596839 253.011048 
z
" clip-path="url(#p25fb33ca69)" style="fill: #55a868; stroke: #000000; stroke-width: 0.3; stroke-linejoin: miter"/>
   </g>
   <g id="patch_39">
    <path d="M 659.688253 288.215372 
L 663.222935 288.215372 
L 663.222935 142.997538 
L 659.688253 142.997538 
z
" clip-path="url(#p25fb33ca69)" style="fill: #55a868; stroke: #000000; stroke-width: 0.3; stroke-linejoin: miter"/>
   </g>
   <g id="patch_40">
    <path d="M 672.779667 288.215372 
L 676.314349 288.215372 
L 676.314349 275.01375 
L 672.779667 275.01375 
z
" clip-path="url(#p25fb33ca69)" style="fill: #55a868; stroke: #000000; stroke-width: 0.3; stroke-linejoin: miter"/>
   </g>
   <g id="patch_41">
    <path d="M 685.871081 288.215372 
L 689.405763 288.215372 
L 689.405763 187.002942 
L 685.871081 187.002942 
z
" clip-path="url(#p25fb33ca69)" style="fill: #55a868; stroke: #000000; stroke-width: 0.3; stroke-linejoin: miter"/>
   </g>
   <g id="patch_42">
    <path d="M 698.962495 288.215372 
L 702.497177 288.215372 
L 702.497177 142.997538 
L 698.962495 142.997538 
z
" clip-path="url(#p25fb33ca69)" style="fill: #55a868; stroke: #000000; stroke-width: 0.3; stroke-linejoin: miter"/>
   </g>
   <g id="patch_43">
    <path d="M 712.053909 288.215372 
L 715.588591 288.215372 
L 715.588591 165.00024 
L 712.053909 165.00024 
z
" clip-path="url(#p25fb33ca69)" style="fill: #55a868; stroke: #000000; stroke-width: 0.3; stroke-linejoin: miter"/>
   </g>
   <g id="patch_44">
    <path d="M 725.145323 288.215372 
L 728.680005 288.215372 
L 728.680005 209.005644 
L 725.145323 209.005644 
z
" clip-path="url(#p25fb33ca69)" style="fill: #55a868; stroke: #000000; stroke-width: 0.3; stroke-linejoin: miter"/>
   </g>
   <g id="patch_45">
    <path d="M 738.236737 288.215372 
L 741.771419 288.215372 
L 741.771419 275.01375 
L 738.236737 275.01375 
z
" clip-path="url(#p25fb33ca69)" style="fill: #55a868; stroke: #000000; stroke-width: 0.3; stroke-linejoin: miter"/>
   </g>
   <g id="patch_46">
    <path d="M 751.328151 288.215372 
L 754.862833 288.215372 
L 754.862833 253.011048 
L 751.328151 253.011048 
z
" clip-path="url(#p25fb33ca69)" style="fill: #55a868; stroke: #000000; stroke-width: 0.3; stroke-linejoin: miter"/>
   </g>
   <g id="patch_47">
    <path d="M 764.419565 288.215372 
L 767.954247 288.215372 
L 767.954247 253.011048 
L 764.419565 253.011048 
z
" clip-path="url(#p25fb33ca69)" style="fill: #55a868; stroke: #000000; stroke-width: 0.3; stroke-linejoin: miter"/>
   </g>
   <g id="patch_48">
    <path d="M 777.510979 288.215372 
L 781.045661 288.215372 
L 781.045661 231.008346 
L 777.510979 231.008346 
z
" clip-path="url(#p25fb33ca69)" style="fill: #55a868; stroke: #000000; stroke-width: 0.3; stroke-linejoin: miter"/>
   </g>
   <g id="patch_49">
    <path d="M 790.602393 288.215372 
L 794.137075 288.215372 
L 794.137075 231.008346 
L 790.602393 231.008346 
z
" clip-path="url(#p25fb33ca69)" style="fill: #55a868; stroke: #000000; stroke-width: 0.3; stroke-linejoin: miter"/>
   </g>
   <g id="patch_50">
    <path d="M 803.693807 288.215372 
L 807.228489 288.215372 
L 807.228489 253.011048 
L 803.693807 253.011048 
z
" clip-path="url(#p25fb33ca69)" style="fill: #55a868; stroke: #000000; stroke-width: 0.3; stroke-linejoin: miter"/>
   </g>
   <g id="patch_51">
    <path d="M 816.785221 288.215372 
L 820.319903 288.215372 
L 820.319903 231.008346 
L 816.785221 231.008346 
z
" clip-path="url(#p25fb33ca69)" style="fill: #55a868; stroke: #000000; stroke-width: 0.3; stroke-linejoin: miter"/>
   </g>
   <g id="patch_52">
    <path d="M 829.876635 288.215372 
L 833.411317 288.215372 
L 833.411317 288.215372 
L 829.876635 288.215372 
z
" clip-path="url(#p25fb33ca69)" style="fill: #55a868; stroke: #000000; stroke-width: 0.3; stroke-linejoin: miter"/>
   </g>
   <g id="patch_53">
    <path d="M 842.968049 288.215372 
L 846.502731 288.215372 
L 846.502731 142.997538 
L 842.968049 142.997538 
z
" clip-path="url(#p25fb33ca69)" style="fill: #55a868; stroke: #000000; stroke-width: 0.3; stroke-linejoin: miter"/>
   </g>
   <g id="patch_54">
    <path d="M 856.059463 288.215372 
L 859.594145 288.215372 
L 859.594145 253.011048 
L 856.059463 253.011048 
z
" clip-path="url(#p25fb33ca69)" style="fill: #55a868; stroke: #000000; stroke-width: 0.3; stroke-linejoin: miter"/>
   </g>
   <g id="patch_55">
    <path d="M 869.150877 288.215372 
L 872.685558 288.215372 
L 872.685558 288.215372 
L 869.150877 288.215372 
z
" clip-path="url(#p25fb33ca69)" style="fill: #55a868; stroke: #000000; stroke-width: 0.3; stroke-linejoin: miter"/>
   </g>
   <g id="patch_56">
    <path d="M 532.308795 288.215372 
L 535.843477 288.215372 
L 535.843477 142.997538 
L 532.308795 142.997538 
z
" clip-path="url(#p25fb33ca69)" style="fill: #c44e52; stroke: #000000; stroke-width: 0.3; stroke-linejoin: miter"/>
   </g>
   <g id="patch_57">
    <path d="M 545.400209 288.215372 
L 548.934891 288.215372 
L 548.934891 165.00024 
L 545.400209 165.00024 
z
" clip-path="url(#p25fb33ca69)" style="fill: #c44e52; stroke: #000000; stroke-width: 0.3; stroke-linejoin: miter"/>
   </g>
   <g id="patch_58">
    <path d="M 558.491623 288.215372 
L 562.026305 288.215372 
L 562.026305 165.00024 
L 558.491623 165.00024 
z
" clip-path="url(#p25fb33ca69)" style="fill: #c44e52; stroke: #000000; stroke-width: 0.3; stroke-linejoin: miter"/>
   </g>
   <g id="patch_59">
    <path d="M 571.583037 288.215372 
L 575.117719 288.215372 
L 575.117719 253.011048 
L 571.583037 253.011048 
z
" clip-path="url(#p25fb33ca69)" style="fill: #c44e52; stroke: #000000; stroke-width: 0.3; stroke-linejoin: miter"/>
   </g>
   <g id="patch_60">
    <path d="M 584.674451 288.215372 
L 588.209133 288.215372 
L 588.209133 275.01375 
L 584.674451 275.01375 
z
" clip-path="url(#p25fb33ca69)" style="fill: #c44e52; stroke: #000000; stroke-width: 0.3; stroke-linejoin: miter"/>
   </g>
   <g id="patch_61">
    <path d="M 597.765865 288.215372 
L 601.300547 288.215372 
L 601.300547 209.005644 
L 597.765865 209.005644 
z
" clip-path="url(#p25fb33ca69)" style="fill: #c44e52; stroke: #000000; stroke-width: 0.3; stroke-linejoin: miter"/>
   </g>
   <g id="patch_62">
    <path d="M 610.857279 288.215372 
L 614.391961 288.215372 
L 614.391961 76.989432 
L 610.857279 76.989432 
z
" clip-path="url(#p25fb33ca69)" style="fill: #c44e52; stroke: #000000; stroke-width: 0.3; stroke-linejoin: miter"/>
   </g>
   <g id="patch_63">
    <path d="M 623.948693 288.215372 
L 627.483375 288.215372 
L 627.483375 187.002942 
L 623.948693 187.002942 
z
" clip-path="url(#p25fb33ca69)" style="fill: #c44e52; stroke: #000000; stroke-width: 0.3; stroke-linejoin: miter"/>
   </g>
   <g id="patch_64">
    <path d="M 637.040107 288.215372 
L 640.574789 288.215372 
L 640.574789 165.00024 
L 637.040107 165.00024 
z
" clip-path="url(#p25fb33ca69)" style="fill: #c44e52; stroke: #000000; stroke-width: 0.3; stroke-linejoin: miter"/>
   </g>
   <g id="patch_65">
    <path d="M 650.131521 288.215372 
L 653.666203 288.215372 
L 653.666203 178.201861 
L 650.131521 178.201861 
z
" clip-path="url(#p25fb33ca69)" style="fill: #c44e52; stroke: #000000; stroke-width: 0.3; stroke-linejoin: miter"/>
   </g>
   <g id="patch_66">
    <path d="M 663.222935 288.215372 
L 666.757617 288.215372 
L 666.757617 142.997538 
L 663.222935 142.997538 
z
" clip-path="url(#p25fb33ca69)" style="fill: #c44e52; stroke: #000000; stroke-width: 0.3; stroke-linejoin: miter"/>
   </g>
   <g id="patch_67">
    <path d="M 676.314349 288.215372 
L 679.849031 288.215372 
L 679.849031 142.997538 
L 676.314349 142.997538 
z
" clip-path="url(#p25fb33ca69)" style="fill: #c44e52; stroke: #000000; stroke-width: 0.3; stroke-linejoin: miter"/>
   </g>
   <g id="patch_68">
    <path d="M 689.405763 288.215372 
L 692.940445 288.215372 
L 692.940445 187.002942 
L 689.405763 187.002942 
z
" clip-path="url(#p25fb33ca69)" style="fill: #c44e52; stroke: #000000; stroke-width: 0.3; stroke-linejoin: miter"/>
   </g>
   <g id="patch_69">
    <path d="M 702.497177 288.215372 
L 706.031859 288.215372 
L 706.031859 142.997538 
L 702.497177 142.997538 
z
" clip-path="url(#p25fb33ca69)" style="fill: #c44e52; stroke: #000000; stroke-width: 0.3; stroke-linejoin: miter"/>
   </g>
   <g id="patch_70">
    <path d="M 715.588591 288.215372 
L 719.123273 288.215372 
L 719.123273 165.00024 
L 715.588591 165.00024 
z
" clip-path="url(#p25fb33ca69)" style="fill: #c44e52; stroke: #000000; stroke-width: 0.3; stroke-linejoin: miter"/>
   </g>
   <g id="patch_71">
    <path d="M 728.680005 288.215372 
L 732.214687 288.215372 
L 732.214687 253.011048 
L 728.680005 253.011048 
z
" clip-path="url(#p25fb33ca69)" style="fill: #c44e52; stroke: #000000; stroke-width: 0.3; stroke-linejoin: miter"/>
   </g>
   <g id="patch_72">
    <path d="M 741.771419 288.215372 
L 745.306101 288.215372 
L 745.306101 209.005644 
L 741.771419 209.005644 
z
" clip-path="url(#p25fb33ca69)" style="fill: #c44e52; stroke: #000000; stroke-width: 0.3; stroke-linejoin: miter"/>
   </g>
   <g id="patch_73">
    <path d="M 754.862833 288.215372 
L 758.397515 288.215372 
L 758.397515 275.01375 
L 754.862833 275.01375 
z
" clip-path="url(#p25fb33ca69)" style="fill: #c44e52; stroke: #000000; stroke-width: 0.3; stroke-linejoin: miter"/>
   </g>
   <g id="patch_74">
    <path d="M 767.954247 288.215372 
L 771.488929 288.215372 
L 771.488929 231.008346 
L 767.954247 231.008346 
z
" clip-path="url(#p25fb33ca69)" style="fill: #c44e52; stroke: #000000; stroke-width: 0.3; stroke-linejoin: miter"/>
   </g>
   <g id="patch_75">
    <path d="M 781.045661 288.215372 
L 784.580342 288.215372 
L 784.580342 231.008346 
L 781.045661 231.008346 
z
" clip-path="url(#p25fb33ca69)" style="fill: #c44e52; stroke: #000000; stroke-width: 0.3; stroke-linejoin: miter"/>
   </g>
   <g id="patch_76">
    <path d="M 794.137075 288.215372 
L 797.671756 288.215372 
L 797.671756 231.008346 
L 794.137075 231.008346 
z
" clip-path="url(#p25fb33ca69)" style="fill: #c44e52; stroke: #000000; stroke-width: 0.3; stroke-linejoin: miter"/>
   </g>
   <g id="patch_77">
    <path d="M 807.228489 288.215372 
L 810.76317 288.215372 
L 810.76317 253.011048 
L 807.228489 253.011048 
z
" clip-path="url(#p25fb33ca69)" style="fill: #c44e52; stroke: #000000; stroke-width: 0.3; stroke-linejoin: miter"/>
   </g>
   <g id="patch_78">
    <path d="M 820.319903 288.215372 
L 823.854584 288.215372 
L 823.854584 288.215372 
L 820.319903 288.215372 
z
" clip-path="url(#p25fb33ca69)" style="fill: #c44e52; stroke: #000000; stroke-width: 0.3; stroke-linejoin: miter"/>
   </g>
   <g id="patch_79">
    <path d="M 833.411317 288.215372 
L 836.945998 288.215372 
L 836.945998 231.008346 
L 833.411317 231.008346 
z
" clip-path="url(#p25fb33ca69)" style="fill: #c44e52; stroke: #000000; stroke-width: 0.3; stroke-linejoin: miter"/>
   </g>
   <g id="patch_80">
    <path d="M 846.502731 288.215372 
L 850.037412 288.215372 
L 850.037412 288.215372 
L 846.502731 288.215372 
z
" clip-path="url(#p25fb33ca69)" style="fill: #c44e52; stroke: #000000; stroke-width: 0.3; stroke-linejoin: miter"/>
   </g>
   <g id="patch_81">
    <path d="M 859.594145 288.215372 
L 863.128826 288.215372 
L 863.128826 310.218074 
L 859.594145 310.218074 
z
" clip-path="url(#p25fb33ca69)" style="fill: #c44e52; stroke: #000000; stroke-width: 0.3; stroke-linejoin: miter"/>
   </g>
   <g id="patch_82">
    <path d="M 872.685558 288.215372 
L 876.22024 288.215372 
L 876.22024 310.218074 
L 872.685558 310.218074 
z
" clip-path="url(#p25fb33ca69)" style="fill: #c44e52; stroke: #000000; stroke-width: 0.3; stroke-linejoin: miter"/>
   </g>
   <g id="patch_83">
    <path d="M 885.776972 288.215372 
L 889.311654 288.215372 
L 889.311654 275.01375 
L 885.776972 275.01375 
z
" clip-path="url(#p25fb33ca69)" style="fill: #c44e52; stroke: #000000; stroke-width: 0.3; stroke-linejoin: miter"/>
   </g>
   <g id="patch_84">
    <path d="M 898.868386 288.215372 
L 902.403068 288.215372 
L 902.403068 310.218074 
L 898.868386 310.218074 
z
" clip-path="url(#p25fb33ca69)" style="fill: #c44e52; stroke: #000000; stroke-width: 0.3; stroke-linejoin: miter"/>
   </g>
   <g id="matplotlib.axis_3">
    <g id="xtick_4">
     <g id="line2d_12">
      <g>
       <use xlink:href="#mad7f2876eb" x="530.541454" y="321.879506" style="stroke: #000000; stroke-width: 0.8"/>
      </g>
     </g>
     <g id="text_16">
      <!-- 1 -->
      <g transform="translate(527.360204 336.477943) scale(0.1 -0.1)">
       <use xlink:href="#DejaVuSans-31"/>
      </g>
     </g>
    </g>
    <g id="xtick_5">
     <g id="line2d_13">
      <g>
       <use xlink:href="#mad7f2876eb" x="556.724282" y="321.879506" style="stroke: #000000; stroke-width: 0.8"/>
      </g>
     </g>
     <g id="text_17">
      <!-- 3 -->
      <g transform="translate(553.543032 336.477943) scale(0.1 -0.1)">
       <defs>
        <path id="DejaVuSans-33" d="M 2597 2516 
Q 3050 2419 3304 2112 
Q 3559 1806 3559 1356 
Q 3559 666 3084 287 
Q 2609 -91 1734 -91 
Q 1441 -91 1130 -33 
Q 819 25 488 141 
L 488 750 
Q 750 597 1062 519 
Q 1375 441 1716 441 
Q 2309 441 2620 675 
Q 2931 909 2931 1356 
Q 2931 1769 2642 2001 
Q 2353 2234 1838 2234 
L 1294 2234 
L 1294 2753 
L 1863 2753 
Q 2328 2753 2575 2939 
Q 2822 3125 2822 3475 
Q 2822 3834 2567 4026 
Q 2313 4219 1838 4219 
Q 1578 4219 1281 4162 
Q 984 4106 628 3988 
L 628 4550 
Q 988 4650 1302 4700 
Q 1616 4750 1894 4750 
Q 2613 4750 3031 4423 
Q 3450 4097 3450 3541 
Q 3450 3153 3228 2886 
Q 3006 2619 2597 2516 
z
" transform="scale(0.015625)"/>
       </defs>
       <use xlink:href="#DejaVuSans-33"/>
      </g>
     </g>
    </g>
    <g id="xtick_6">
     <g id="line2d_14">
      <g>
       <use xlink:href="#mad7f2876eb" x="582.90711" y="321.879506" style="stroke: #000000; stroke-width: 0.8"/>
      </g>
     </g>
     <g id="text_18">
      <!-- 5 -->
      <g transform="translate(579.72586 336.477943) scale(0.1 -0.1)">
       <use xlink:href="#DejaVuSans-35"/>
      </g>
     </g>
    </g>
    <g id="xtick_7">
     <g id="line2d_15">
      <g>
       <use xlink:href="#mad7f2876eb" x="609.089938" y="321.879506" style="stroke: #000000; stroke-width: 0.8"/>
      </g>
     </g>
     <g id="text_19">
      <!-- 7 -->
      <g transform="translate(605.908688 336.477943) scale(0.1 -0.1)">
       <use xlink:href="#DejaVuSans-37"/>
      </g>
     </g>
    </g>
    <g id="xtick_8">
     <g id="line2d_16">
      <g>
       <use xlink:href="#mad7f2876eb" x="635.272766" y="321.879506" style="stroke: #000000; stroke-width: 0.8"/>
      </g>
     </g>
     <g id="text_20">
      <!-- 9 -->
      <g transform="translate(632.091516 336.477943) scale(0.1 -0.1)">
       <use xlink:href="#DejaVuSans-39"/>
      </g>
     </g>
    </g>
    <g id="xtick_9">
     <g id="line2d_17">
      <g>
       <use xlink:href="#mad7f2876eb" x="661.455594" y="321.879506" style="stroke: #000000; stroke-width: 0.8"/>
      </g>
     </g>
     <g id="text_21">
      <!-- 11 -->
      <g transform="translate(655.093094 336.477943) scale(0.1 -0.1)">
       <use xlink:href="#DejaVuSans-31"/>
       <use xlink:href="#DejaVuSans-31" transform="translate(63.623047 0)"/>
      </g>
     </g>
    </g>
    <g id="xtick_10">
     <g id="line2d_18">
      <g>
       <use xlink:href="#mad7f2876eb" x="687.638422" y="321.879506" style="stroke: #000000; stroke-width: 0.8"/>
      </g>
     </g>
     <g id="text_22">
      <!-- 13 -->
      <g transform="translate(681.275922 336.477943) scale(0.1 -0.1)">
       <use xlink:href="#DejaVuSans-31"/>
       <use xlink:href="#DejaVuSans-33" transform="translate(63.623047 0)"/>
      </g>
     </g>
    </g>
    <g id="xtick_11">
     <g id="line2d_19">
      <g>
       <use xlink:href="#mad7f2876eb" x="713.82125" y="321.879506" style="stroke: #000000; stroke-width: 0.8"/>
      </g>
     </g>
     <g id="text_23">
      <!-- 15 -->
      <g transform="translate(707.45875 336.477943) scale(0.1 -0.1)">
       <use xlink:href="#DejaVuSans-31"/>
       <use xlink:href="#DejaVuSans-35" transform="translate(63.623047 0)"/>
      </g>
     </g>
    </g>
    <g id="xtick_12">
     <g id="line2d_20">
      <g>
       <use xlink:href="#mad7f2876eb" x="740.004078" y="321.879506" style="stroke: #000000; stroke-width: 0.8"/>
      </g>
     </g>
     <g id="text_24">
      <!-- 17 -->
      <g transform="translate(733.641578 336.477943) scale(0.1 -0.1)">
       <use xlink:href="#DejaVuSans-31"/>
       <use xlink:href="#DejaVuSans-37" transform="translate(63.623047 0)"/>
      </g>
     </g>
    </g>
    <g id="xtick_13">
     <g id="line2d_21">
      <g>
       <use xlink:href="#mad7f2876eb" x="766.186906" y="321.879506" style="stroke: #000000; stroke-width: 0.8"/>
      </g>
     </g>
     <g id="text_25">
      <!-- 19 -->
      <g transform="translate(759.824406 336.477943) scale(0.1 -0.1)">
       <use xlink:href="#DejaVuSans-31"/>
       <use xlink:href="#DejaVuSans-39" transform="translate(63.623047 0)"/>
      </g>
     </g>
    </g>
    <g id="xtick_14">
     <g id="line2d_22">
      <g>
       <use xlink:href="#mad7f2876eb" x="792.369734" y="321.879506" style="stroke: #000000; stroke-width: 0.8"/>
      </g>
     </g>
     <g id="text_26">
      <!-- 21 -->
      <g transform="translate(786.007234 336.477943) scale(0.1 -0.1)">
       <use xlink:href="#DejaVuSans-32"/>
       <use xlink:href="#DejaVuSans-31" transform="translate(63.623047 0)"/>
      </g>
     </g>
    </g>
    <g id="xtick_15">
     <g id="line2d_23">
      <g>
       <use xlink:href="#mad7f2876eb" x="818.552562" y="321.879506" style="stroke: #000000; stroke-width: 0.8"/>
      </g>
     </g>
     <g id="text_27">
      <!-- 23 -->
      <g transform="translate(812.190062 336.477943) scale(0.1 -0.1)">
       <use xlink:href="#DejaVuSans-32"/>
       <use xlink:href="#DejaVuSans-33" transform="translate(63.623047 0)"/>
      </g>
     </g>
    </g>
    <g id="xtick_16">
     <g id="line2d_24">
      <g>
       <use xlink:href="#mad7f2876eb" x="844.73539" y="321.879506" style="stroke: #000000; stroke-width: 0.8"/>
      </g>
     </g>
     <g id="text_28">
      <!-- 25 -->
      <g transform="translate(838.37289 336.477943) scale(0.1 -0.1)">
       <use xlink:href="#DejaVuSans-32"/>
       <use xlink:href="#DejaVuSans-35" transform="translate(63.623047 0)"/>
      </g>
     </g>
    </g>
    <g id="xtick_17">
     <g id="line2d_25">
      <g>
       <use xlink:href="#mad7f2876eb" x="870.918218" y="321.879506" style="stroke: #000000; stroke-width: 0.8"/>
      </g>
     </g>
     <g id="text_29">
      <!-- 27 -->
      <g transform="translate(864.555718 336.477943) scale(0.1 -0.1)">
       <use xlink:href="#DejaVuSans-32"/>
       <use xlink:href="#DejaVuSans-37" transform="translate(63.623047 0)"/>
      </g>
     </g>
    </g>
    <g id="xtick_18">
     <g id="line2d_26">
      <g>
       <use xlink:href="#mad7f2876eb" x="897.101046" y="321.879506" style="stroke: #000000; stroke-width: 0.8"/>
      </g>
     </g>
     <g id="text_30">
      <!-- 29 -->
      <g transform="translate(890.738546 336.477943) scale(0.1 -0.1)">
       <use xlink:href="#DejaVuSans-32"/>
       <use xlink:href="#DejaVuSans-39" transform="translate(63.623047 0)"/>
      </g>
     </g>
    </g>
    <g id="text_31">
     <!-- Step -->
     <g transform="translate(702.436094 350.156068) scale(0.1 -0.1)">
      <defs>
       <path id="DejaVuSans-53" d="M 3425 4513 
L 3425 3897 
Q 3066 4069 2747 4153 
Q 2428 4238 2131 4238 
Q 1616 4238 1336 4038 
Q 1056 3838 1056 3469 
Q 1056 3159 1242 3001 
Q 1428 2844 1947 2747 
L 2328 2669 
Q 3034 2534 3370 2195 
Q 3706 1856 3706 1288 
Q 3706 609 3251 259 
Q 2797 -91 1919 -91 
Q 1588 -91 1214 -16 
Q 841 59 441 206 
L 441 856 
Q 825 641 1194 531 
Q 1563 422 1919 422 
Q 2459 422 2753 634 
Q 3047 847 3047 1241 
Q 3047 1584 2836 1778 
Q 2625 1972 2144 2069 
L 1759 2144 
Q 1053 2284 737 2584 
Q 422 2884 422 3419 
Q 422 4038 858 4394 
Q 1294 4750 2059 4750 
Q 2388 4750 2728 4690 
Q 3069 4631 3425 4513 
z
" transform="scale(0.015625)"/>
      </defs>
      <use xlink:href="#DejaVuSans-53"/>
      <use xlink:href="#DejaVuSans-74" transform="translate(63.476562 0)"/>
      <use xlink:href="#DejaVuSans-65" transform="translate(102.685547 0)"/>
      <use xlink:href="#DejaVuSans-70" transform="translate(164.208984 0)"/>
     </g>
    </g>
   </g>
   <g id="matplotlib.axis_4">
    <g id="ytick_7">
     <g id="line2d_27">
      <g>
       <use xlink:href="#me4b84c83d4" x="506.38125" y="288.215372" style="stroke: #000000; stroke-width: 0.8"/>
      </g>
     </g>
     <g id="text_32">
      <!-- 0.0 -->
      <g transform="translate(483.478125 292.01459) scale(0.1 -0.1)">
       <use xlink:href="#DejaVuSans-30"/>
       <use xlink:href="#DejaVuSans-2e" transform="translate(63.623047 0)"/>
       <use xlink:href="#DejaVuSans-30" transform="translate(95.410156 0)"/>
      </g>
     </g>
    </g>
    <g id="ytick_8">
     <g id="line2d_28">
      <g>
       <use xlink:href="#me4b84c83d4" x="506.38125" y="244.209967" style="stroke: #000000; stroke-width: 0.8"/>
      </g>
     </g>
     <g id="text_33">
      <!-- 0.1 -->
      <g transform="translate(483.478125 248.009186) scale(0.1 -0.1)">
       <use xlink:href="#DejaVuSans-30"/>
       <use xlink:href="#DejaVuSans-2e" transform="translate(63.623047 0)"/>
       <use xlink:href="#DejaVuSans-31" transform="translate(95.410156 0)"/>
      </g>
     </g>
    </g>
    <g id="ytick_9">
     <g id="line2d_29">
      <g>
       <use xlink:href="#me4b84c83d4" x="506.38125" y="200.204563" style="stroke: #000000; stroke-width: 0.8"/>
      </g>
     </g>
     <g id="text_34">
      <!-- 0.2 -->
      <g transform="translate(483.478125 204.003782) scale(0.1 -0.1)">
       <use xlink:href="#DejaVuSans-30"/>
       <use xlink:href="#DejaVuSans-2e" transform="translate(63.623047 0)"/>
       <use xlink:href="#DejaVuSans-32" transform="translate(95.410156 0)"/>
      </g>
     </g>
    </g>
    <g id="ytick_10">
     <g id="line2d_30">
      <g>
       <use xlink:href="#me4b84c83d4" x="506.38125" y="156.199159" style="stroke: #000000; stroke-width: 0.8"/>
      </g>
     </g>
     <g id="text_35">
      <!-- 0.3 -->
      <g transform="translate(483.478125 159.998378) scale(0.1 -0.1)">
       <use xlink:href="#DejaVuSans-30"/>
       <use xlink:href="#DejaVuSans-2e" transform="translate(63.623047 0)"/>
       <use xlink:href="#DejaVuSans-33" transform="translate(95.410156 0)"/>
      </g>
     </g>
    </g>
    <g id="ytick_11">
     <g id="line2d_31">
      <g>
       <use xlink:href="#me4b84c83d4" x="506.38125" y="112.193755" style="stroke: #000000; stroke-width: 0.8"/>
      </g>
     </g>
     <g id="text_36">
      <!-- 0.4 -->
      <g transform="translate(483.478125 115.992974) scale(0.1 -0.1)">
       <use xlink:href="#DejaVuSans-30"/>
       <use xlink:href="#DejaVuSans-2e" transform="translate(63.623047 0)"/>
       <use xlink:href="#DejaVuSans-34" transform="translate(95.410156 0)"/>
      </g>
     </g>
    </g>
    <g id="ytick_12">
     <g id="line2d_32">
      <g>
       <use xlink:href="#me4b84c83d4" x="506.38125" y="68.188351" style="stroke: #000000; stroke-width: 0.8"/>
      </g>
     </g>
     <g id="text_37">
      <!-- 0.5 -->
      <g transform="translate(483.478125 71.98757) scale(0.1 -0.1)">
       <use xlink:href="#DejaVuSans-30"/>
       <use xlink:href="#DejaVuSans-2e" transform="translate(63.623047 0)"/>
       <use xlink:href="#DejaVuSans-35" transform="translate(95.410156 0)"/>
      </g>
     </g>
    </g>
    <g id="text_38">
     <!-- Reward -->
     <g transform="translate(477.398438 212.224847) rotate(-90) scale(0.1 -0.1)">
      <defs>
       <path id="DejaVuSans-52" d="M 2841 2188 
Q 3044 2119 3236 1894 
Q 3428 1669 3622 1275 
L 4263 0 
L 3584 0 
L 2988 1197 
Q 2756 1666 2539 1819 
Q 2322 1972 1947 1972 
L 1259 1972 
L 1259 0 
L 628 0 
L 628 4666 
L 2053 4666 
Q 2853 4666 3247 4331 
Q 3641 3997 3641 3322 
Q 3641 2881 3436 2590 
Q 3231 2300 2841 2188 
z
M 1259 4147 
L 1259 2491 
L 2053 2491 
Q 2509 2491 2742 2702 
Q 2975 2913 2975 3322 
Q 2975 3731 2742 3939 
Q 2509 4147 2053 4147 
L 1259 4147 
z
" transform="scale(0.015625)"/>
      </defs>
      <use xlink:href="#DejaVuSans-52"/>
      <use xlink:href="#DejaVuSans-65" transform="translate(64.982422 0)"/>
      <use xlink:href="#DejaVuSans-77" transform="translate(126.505859 0)"/>
      <use xlink:href="#DejaVuSans-61" transform="translate(208.292969 0)"/>
      <use xlink:href="#DejaVuSans-72" transform="translate(269.572266 0)"/>
      <use xlink:href="#DejaVuSans-64" transform="translate(308.935547 0)"/>
     </g>
    </g>
   </g>
   <g id="line2d_33">
    <path d="M 506.38125 288.215372 
L 921.26125 288.215372 
" clip-path="url(#p25fb33ca69)" style="fill: none; stroke: #666666; stroke-width: 0.8; stroke-linecap: square"/>
   </g>
   <g id="patch_85">
    <path d="M 506.38125 321.879506 
L 506.38125 65.328 
" style="fill: none; stroke: #000000; stroke-width: 0.8; stroke-linejoin: miter; stroke-linecap: square"/>
   </g>
   <g id="patch_86">
    <path d="M 921.26125 321.879506 
L 921.26125 65.328 
" style="fill: none; stroke: #000000; stroke-width: 0.8; stroke-linejoin: miter; stroke-linecap: square"/>
   </g>
   <g id="patch_87">
    <path d="M 506.38125 321.879506 
L 921.26125 321.879506 
" style="fill: none; stroke: #000000; stroke-width: 0.8; stroke-linejoin: miter; stroke-linecap: square"/>
   </g>
   <g id="patch_88">
    <path d="M 506.38125 65.328 
L 921.26125 65.328 
" style="fill: none; stroke: #000000; stroke-width: 0.8; stroke-linejoin: miter; stroke-linecap: square"/>
   </g>
   <g id="text_39">
    <!-- Per-step reward by task -->
    <g transform="translate(643.01375 59.328) scale(0.12 -0.12)">
     <defs>
      <path id="DejaVuSans-50" d="M 1259 4147 
L 1259 2394 
L 2053 2394 
Q 2494 2394 2734 2622 
Q 2975 2850 2975 3272 
Q 2975 3691 2734 3919 
Q 2494 4147 2053 4147 
L 1259 4147 
z
M 628 4666 
L 2053 4666 
Q 2838 4666 3239 4311 
Q 3641 3956 3641 3272 
Q 3641 2581 3239 2228 
Q 2838 1875 2053 1875 
L 1259 1875 
L 1259 0 
L 628 0 
L 628 4666 
z
" transform="scale(0.015625)"/>
      <path id="DejaVuSans-2d" d="M 313 2009 
L 1997 2009 
L 1997 1497 
L 313 1497 
L 313 2009 
z
" transform="scale(0.015625)"/>
     </defs>
     <use xlink:href="#DejaVuSans-50"/>
     <use xlink:href="#DejaVuSans-65" transform="translate(56.677734 0)"/>
     <use xlink:href="#DejaVuSans-72" transform="translate(118.201172 0)"/>
     <use xlink:href="#DejaVuSans-2d" transform="translate(152.939453 0)"/>
     <use xlink:href="#DejaVuSans-73" transform="translate(189.023438 0)"/>
     <use xlink:href="#DejaVuSans-74" transform="translate(241.123047 0)"/>
     <use xlink:href="#DejaVuSans-65" transform="translate(280.332031 0)"/>
     <use xlink:href="#DejaVuSans-70" transform="translate(341.855469 0)"/>
     <use xlink:href="#DejaVuSans-20" transform="translate(405.332031 0)"/>
     <use xlink:href="#DejaVuSans-72" transform="translate(437.119141 0)"/>
     <use xlink:href="#DejaVuSans-65" transform="translate(475.982422 0)"/>
     <use xlink:href="#DejaVuSans-77" transform="translate(537.505859 0)"/>
     <use xlink:href="#DejaVuSans-61" transform="translate(619.292969 0)"/>
     <use xlink:href="#DejaVuSans-72" transform="translate(680.572266 0)"/>
     <use xlink:href="#DejaVuSans-64" transform="translate(719.935547 0)"/>
     <use xlink:href="#DejaVuSans-20" transform="translate(783.412109 0)"/>
     <use xlink:href="#DejaVuSans-62" transform="translate(815.199219 0)"/>
     <use xlink:href="#DejaVuSans-79" transform="translate(878.675781 0)"/>
     <use xlink:href="#DejaVuSans-20" transform="translate(937.855469 0)"/>
     <use xlink:href="#DejaVuSans-74" transform="translate(969.642578 0)"/>
     <use xlink:href="#DejaVuSans-61" transform="translate(1008.851562 0)"/>
     <use xlink:href="#DejaVuSans-73" transform="translate(1070.130859 0)"/>
     <use xlink:href="#DejaVuSans-6b" transform="translate(1122.230469 0)"/>
    </g>
   </g>
   <g id="legend_2">
    <g id="patch_89">
     <path d="M 802.524531 80.266594 
L 820.524531 80.266594 
L 820.524531 73.966594 
L 802.524531 73.966594 
z
" style="fill: #4c72b0; stroke: #000000; stroke-width: 0.3; stroke-linejoin: miter"/>
    </g>
    <g id="text_40">
     <!-- basic_validation -->
     <g transform="translate(827.724531 80.266594) scale(0.09 -0.09)">
      <use xlink:href="#DejaVuSans-62"/>
      <use xlink:href="#DejaVuSans-61" transform="translate(63.476562 0)"/>
      <use xlink:href="#DejaVuSans-73" transform="translate(124.755859 0)"/>
      <use xlink:href="#DejaVuSans-69" transform="translate(176.855469 0)"/>
      <use xlink:href="#DejaVuSans-63" transform="translate(204.638672 0)"/>
      <use xlink:href="#DejaVuSans-5f" transform="translate(259.619141 0)"/>
      <use xlink:href="#DejaVuSans-76" transform="translate(309.619141 0)"/>
      <use xlink:href="#DejaVuSans-61" transform="translate(368.798828 0)"/>
      <use xlink:href="#DejaVuSans-6c" transform="translate(430.078125 0)"/>
      <use xlink:href="#DejaVuSans-69" transform="translate(457.861328 0)"/>
      <use xlink:href="#DejaVuSans-64" transform="translate(485.644531 0)"/>
      <use xlink:href="#DejaVuSans-61" transform="translate(549.121094 0)"/>
      <use xlink:href="#DejaVuSans-74" transform="translate(610.400391 0)"/>
      <use xlink:href="#DejaVuSans-69" transform="translate(649.609375 0)"/>
      <use xlink:href="#DejaVuSans-6f" transform="translate(677.392578 0)"/>
      <use xlink:href="#DejaVuSans-6e" transform="translate(738.574219 0)"/>
     </g>
    </g>
    <g id="patch_90">
     <path d="M 802.524531 93.727219 
L 820.524531 93.727219 
L 820.524531 87.427219 
L 802.524531 87.427219 
z
" style="fill: #55a868; stroke: #000000; stroke-width: 0.3; stroke-linejoin: miter"/>
    </g>
    <g id="text_41">
     <!-- edge_cases -->
     <g transform="translate(827.724531 93.727219) scale(0.09 -0.09)">
      <use xlink:href="#DejaVuSans-65"/>
      <use xlink:href="#DejaVuSans-64" transform="translate(61.523438 0)"/>
      <use xlink:href="#DejaVuSans-67" transform="translate(125 0)"/>
      <use xlink:href="#DejaVuSans-65" transform="translate(188.476562 0)"/>
      <use xlink:href="#DejaVuSans-5f" transform="translate(250 0)"/>
      <use xlink:href="#DejaVuSans-63" transform="translate(300 0)"/>
      <use xlink:href="#DejaVuSans-61" transform="translate(354.980469 0)"/>
      <use xlink:href="#DejaVuSans-73" transform="translate(416.259766 0)"/>
      <use xlink:href="#DejaVuSans-65" transform="translate(468.359375 0)"/>
      <use xlink:href="#DejaVuSans-73" transform="translate(529.882812 0)"/>
     </g>
    </g>
    <g id="patch_91">
     <path d="M 802.524531 107.187844 
L 820.524531 107.187844 
L 820.524531 100.887844 
L 802.524531 100.887844 
z
" style="fill: #c44e52; stroke: #000000; stroke-width: 0.3; stroke-linejoin: miter"/>
    </g>
    <g id="text_42">
     <!-- security_workflows -->
     <g transform="translate(827.724531 107.187844) scale(0.09 -0.09)">
      <use xlink:href="#DejaVuSans-73"/>
      <use xlink:href="#DejaVuSans-65" transform="translate(52.099609 0)"/>
      <use xlink:href="#DejaVuSans-63" transform="translate(113.623047 0)"/>
      <use xlink:href="#DejaVuSans-75" transform="translate(168.603516 0)"/>
      <use xlink:href="#DejaVuSans-72" transform="translate(231.982422 0)"/>
      <use xlink:href="#DejaVuSans-69" transform="translate(273.095703 0)"/>
      <use xlink:href="#DejaVuSans-74" transform="translate(300.878906 0)"/>
      <use xlink:href="#DejaVuSans-79" transform="translate(340.087891 0)"/>
      <use xlink:href="#DejaVuSans-5f" transform="translate(399.267578 0)"/>
      <use xlink:href="#DejaVuSans-77" transform="translate(449.267578 0)"/>
      <use xlink:href="#DejaVuSans-6f" transform="translate(531.054688 0)"/>
      <use xlink:href="#DejaVuSans-72" transform="translate(592.236328 0)"/>
      <use xlink:href="#DejaVuSans-6b" transform="translate(633.349609 0)"/>
      <use xlink:href="#DejaVuSans-66" transform="translate(691.259766 0)"/>
      <use xlink:href="#DejaVuSans-6c" transform="translate(726.464844 0)"/>
      <use xlink:href="#DejaVuSans-6f" transform="translate(754.248047 0)"/>
      <use xlink:href="#DejaVuSans-77" transform="translate(815.429688 0)"/>
      <use xlink:href="#DejaVuSans-73" transform="translate(897.216797 0)"/>
     </g>
    </g>
   </g>
  </g>
  <g id="text_43">
   <!-- inference.py — meta-llama/Llama-3.3-70B-Instruct (avg score 0.667) -->
   <g transform="translate(231.97 16.318125) scale(0.12 -0.12)">
    <defs>
     <path id="DejaVuSans-Bold-69" d="M 538 3500 
L 1656 3500 
L 1656 0 
L 538 0 
L 538 3500 
z
M 538 4863 
L 1656 4863 
L 1656 3950 
L 538 3950 
L 538 4863 
z
" transform="scale(0.015625)"/>
     <path id="DejaVuSans-Bold-6e" d="M 4056 2131 
L 4056 0 
L 2931 0 
L 2931 347 
L 2931 1631 
Q 2931 2084 2911 2256 
Q 2891 2428 2841 2509 
Q 2775 2619 2662 2680 
Q 2550 2741 2406 2741 
Q 2056 2741 1856 2470 
Q 1656 2200 1656 1722 
L 1656 0 
L 538 0 
L 538 3500 
L 1656 3500 
L 1656 2988 
Q 1909 3294 2193 3439 
Q 2478 3584 2822 3584 
Q 3428 3584 3742 3212 
Q 4056 2841 4056 2131 
z
" transform="scale(0.015625)"/>
     <path id="DejaVuSans-Bold-66" d="M 2841 4863 
L 2841 4128 
L 2222 4128 
Q 1984 4128 1890 4042 
Q 1797 3956 1797 3744 
L 1797 3500 
L 2753 3500 
L 2753 2700 
L 1797 2700 
L 1797 0 
L 678 0 
L 678 2700 
L 122 2700 
L 122 3500 
L 678 3500 
L 678 3744 
Q 678 4316 997 4589 
Q 1316 4863 1984 4863 
L 2841 4863 
z
" transform="scale(0.015625)"/>
     <path id="DejaVuSans-Bold-65" d="M 4031 1759 
L 4031 1441 
L 1416 1441 
Q 1456 1047 1700 850 
Q 1944 653 2381 653 
Q 2734 653 3104 758 
Q 3475 863 3866 1075 
L 3866 213 
Q 3469 63 3072 -14 
Q 2675 -91 2278 -91 
Q 1328 -91 801 392 
Q 275 875 275 1747 
Q 275 2603 792 3093 
Q 1309 3584 2216 3584 
Q 3041 3584 3536 3087 
Q 4031 2591 4031 1759 
z
M 2881 2131 
Q 2881 2450 2695 2645 
Q 2509 2841 2209 2841 
Q 1884 2841 1681 2658 
Q 1478 2475 1428 2131 
L 2881 2131 
z
" transform="scale(0.015625)"/>
     <path id="DejaVuSans-Bold-72" d="M 3138 2547 
Q 2991 2616 2845 2648 
Q 2700 2681 2553 2681 
Q 2122 2681 1889 2404 
Q 1656 2128 1656 1613 
L 1656 0 
L 538 0 
L 538 3500 
L 1656 3500 
L 1656 2925 
Q 1872 3269 2151 3426 
Q 2431 3584 2822 3584 
Q 2878 3584 2943 3579 
Q 3009 3575 3134 3559 
L 3138 2547 
z
" transform="scale(0.015625)"/>
     <path id="DejaVuSans-Bold-63" d="M 3366 3391 
L 3366 2478 
Q 3138 2634 2908 2709 
Q 2678 2784 2431 2784 
Q 1963 2784 1702 2511 
Q 1441 2238 1441 1747 
Q 1441 1256 1702 982 
Q 1963 709 2431 709 
Q 2694 709 2930 787 
Q 3166 866 3366 1019 
L 3366 103 
Q 3103 6 2833 -42 
Q 2563 -91 2291 -91 
Q 1344 -91 809 395 
Q 275 881 275 1747 
Q 275 2613 809 3098 
Q 1344 3584 2291 3584 
Q 2566 3584 2833 3536 
Q 3100 3488 3366 3391 
z
" transform="scale(0.015625)"/>
     <path id="DejaVuSans-Bold-2e" d="M 653 1209 
L 1778 1209 
L 1778 0 
L 653 0 
L 653 1209 
z
" transform="scale(0.015625)"/>
     <path id="DejaVuSans-Bold-70" d="M 1656 506 
L 1656 -1331 
L 538 -1331 
L 538 3500 
L 1656 3500 
L 1656 2988 
Q 1888 3294 2169 3439 
Q 2450 3584 2816 3584 
Q 3463 3584 3878 3070 
Q 4294 2556 4294 1747 
Q 4294 938 3878 423 
Q 3463 -91 2816 -91 
Q 2450 -91 2169 54 
Q 1888 200 1656 506 
z
M 2400 2772 
Q 2041 2772 1848 2508 
Q 1656 2244 1656 1747 
Q 1656 1250 1848 986 
Q 2041 722 2400 722 
Q 2759 722 2948 984 
Q 3138 1247 3138 1747 
Q 3138 2247 2948 2509 
Q 2759 2772 2400 2772 
z
" transform="scale(0.015625)"/>
     <path id="DejaVuSans-Bold-79" d="M 78 3500 
L 1197 3500 
L 2138 1125 
L 2938 3500 
L 4056 3500 
L 2584 -331 
Q 2363 -916 2067 -1148 
Q 1772 -1381 1288 -1381 
L 641 -1381 
L 641 -647 
L 991 -647 
Q 1275 -647 1404 -556 
Q 1534 -466 1606 -231 
L 1638 -134 
L 78 3500 
z
" transform="scale(0.015625)"/>
     <path id="DejaVuSans-Bold-20" transform="scale(0.015625)"/>
     <path id="DejaVuSans-Bold-2014" d="M 344 2156 
L 6056 2156 
L 6056 1350 
L 344 1350 
L 344 2156 
z
" transform="scale(0.015625)"/>
     <path id="DejaVuSans-Bold-6d" d="M 3781 2919 
Q 3994 3244 4286 3414 
Q 4578 3584 4928 3584 
Q 5531 3584 5847 3212 
Q 6163 2841 6163 2131 
L 6163 0 
L 5038 0 
L 5038 1825 
Q 5041 1866 5042 1909 
Q 5044 1953 5044 2034 
Q 5044 2406 4934 2573 
Q 4825 2741 4581 2741 
Q 4263 2741 4089 2478 
Q 3916 2216 3909 1719 
L 3909 0 
L 2784 0 
L 2784 1825 
Q 2784 2406 2684 2573 
Q 2584 2741 2328 2741 
Q 2006 2741 1831 2477 
Q 1656 2213 1656 1722 
L 1656 0 
L 531 0 
L 531 3500 
L 1656 3500 
L 1656 2988 
Q 1863 3284 2130 3434 
Q 2397 3584 2719 3584 
Q 3081 3584 3359 3409 
Q 3638 3234 3781 2919 
z
" transform="scale(0.015625)"/>
     <path id="DejaVuSans-Bold-74" d="M 1759 4494 
L 1759 3500 
L 2913 3500 
L 2913 2700 
L 1759 2700 
L 1759 1216 
Q 1759 972 1856 886 
Q 1953 800 2241 800 
L 2816 800 
L 2816 0 
L 1856 0 
Q 1194 0 917 276 
Q 641 553 641 1216 
L 641 2700 
L 84 2700 
L 84 3500 
L 641 3500 
L 641 4494 
L 1759 4494 
z
" transform="scale(0.015625)"/>
     <path id="DejaVuSans-Bold-61" d="M 2106 1575 
Q 1756 1575 1579 1456 
Q 1403 1338 1403 1106 
Q 1403 894 1545 773 
Q 1688 653 1941 653 
Q 2256 653 2472 879 
Q 2688 1106 2688 1447 
L 2688 1575 
L 2106 1575 
z
M 3816 1997 
L 3816 0 
L 2688 0 
L 2688 519 
Q 2463 200 2181 54 
Q 1900 -91 1497 -91 
Q 953 -91 614 226 
Q 275 544 275 1050 
Q 275 1666 698 1953 
Q 1122 2241 2028 2241 
L 2688 2241 
L 2688 2328 
Q 2688 2594 2478 2717 
Q 2269 2841 1825 2841 
Q 1466 2841 1156 2769 
Q 847 2697 581 2553 
L 581 3406 
Q 941 3494 1303 3539 
Q 1666 3584 2028 3584 
Q 2975 3584 3395 3211 
Q 3816 2838 3816 1997 
z
" transform="scale(0.015625)"/>
     <path id="DejaVuSans-Bold-2d" d="M 347 2297 
L 2309 2297 
L 2309 1388 
L 347 1388 
L 347 2297 
z
" transform="scale(0.015625)"/>
     <path id="DejaVuSans-Bold-6c" d="M 538 4863 
L 1656 4863 
L 1656 0 
L 538 0 
L 538 4863 
z
" transform="scale(0.015625)"/>
     <path id="DejaVuSans-Bold-2f" d="M 1644 4666 
L 2338 4666 
L 691 -594 
L 0 -594 
L 1644 4666 
z
" transform="scale(0.015625)"/>
     <path id="DejaVuSans-Bold-4c" d="M 588 4666 
L 1791 4666 
L 1791 909 
L 3903 909 
L 3903 0 
L 588 0 
L 588 4666 
z
" transform="scale(0.015625)"/>
     <path id="DejaVuSans-Bold-33" d="M 2981 2516 
Q 3453 2394 3698 2092 
Q 3944 1791 3944 1325 
Q 3944 631 3412 270 
Q 2881 -91 1863 -91 
Q 1503 -91 1142 -33 
Q 781 25 428 141 
L 428 1069 
Q 766 900 1098 814 
Q 1431 728 1753 728 
Q 2231 728 2486 893 
Q 2741 1059 2741 1369 
Q 2741 1688 2480 1852 
Q 2219 2016 1709 2016 
L 1228 2016 
L 1228 2791 
L 1734 2791 
Q 2188 2791 2409 2933 
Q 2631 3075 2631 3366 
Q 2631 3634 2415 3781 
Q 2200 3928 1806 3928 
Q 1516 3928 1219 3862 
Q 922 3797 628 3669 
L 628 4550 
Q 984 4650 1334 4700 
Q 1684 4750 2022 4750 
Q 2931 4750 3382 4451 
Q 3834 4153 3834 3553 
Q 3834 3144 3618 2883 
Q 3403 2622 2981 2516 
z
" transform="scale(0.015625)"/>
     <path id="DejaVuSans-Bold-37" d="M 428 4666 
L 3944 4666 
L 3944 3988 
L 2125 0 
L 953 0 
L 2675 3781 
L 428 3781 
L 428 4666 
z
" transform="scale(0.015625)"/>
     <path id="DejaVuSans-Bold-30" d="M 2944 2338 
Q 2944 3213 2780 3570 
Q 2616 3928 2228 3928 
Q 1841 3928 1675 3570 
Q 1509 3213 1509 2338 
Q 1509 1453 1675 1090 
Q 1841 728 2228 728 
Q 2613 728 2778 1090 
Q 2944 1453 2944 2338 
z
M 4147 2328 
Q 4147 1169 3647 539 
Q 3147 -91 2228 -91 
Q 1306 -91 806 539 
Q 306 1169 306 2328 
Q 306 3491 806 4120 
Q 1306 4750 2228 4750 
Q 3147 4750 3647 4120 
Q 4147 3491 4147 2328 
z
" transform="scale(0.015625)"/>
     <path id="DejaVuSans-Bold-42" d="M 2456 2859 
Q 2741 2859 2887 2984 
Q 3034 3109 3034 3353 
Q 3034 3594 2887 3720 
Q 2741 3847 2456 3847 
L 1791 3847 
L 1791 2859 
L 2456 2859 
z
M 2497 819 
Q 2859 819 3042 972 
Q 3225 1125 3225 1434 
Q 3225 1738 3044 1889 
Q 2863 2041 2497 2041 
L 1791 2041 
L 1791 819 
L 2497 819 
z
M 3616 2497 
Q 4003 2384 4215 2081 
Q 4428 1778 4428 1338 
Q 4428 663 3972 331 
Q 3516 0 2584 0 
L 588 0 
L 588 4666 
L 2394 4666 
Q 3366 4666 3802 4372 
Q 4238 4078 4238 3431 
Q 4238 3091 4078 2852 
Q 3919 2613 3616 2497 
z
" transform="scale(0.015625)"/>
     <path id="DejaVuSans-Bold-49" d="M 588 4666 
L 1791 4666 
L 1791 0 
L 588 0 
L 588 4666 
z
" transform="scale(0.015625)"/>
     <path id="DejaVuSans-Bold-73" d="M 3272 3391 
L 3272 2541 
Q 2913 2691 2578 2766 
Q 2244 2841 1947 2841 
Q 1628 2841 1473 2761 
Q 1319 2681 1319 2516 
Q 1319 2381 1436 2309 
Q 1553 2238 1856 2203 
L 2053 2175 
Q 2913 2066 3209 1816 
Q 3506 1566 3506 1031 
Q 3506 472 3093 190 
Q 2681 -91 1863 -91 
Q 1516 -91 1145 -36 
Q 775 19 384 128 
L 384 978 
Q 719 816 1070 734 
Q 1422 653 1784 653 
Q 2113 653 2278 743 
Q 2444 834 2444 1013 
Q 2444 1163 2330 1236 
Q 2216 1309 1875 1350 
L 1678 1375 
Q 931 1469 631 1722 
Q 331 1975 331 2491 
Q 331 3047 712 3315 
Q 1094 3584 1881 3584 
Q 2191 3584 2531 3537 
Q 2872 3491 3272 3391 
z
" transform="scale(0.015625)"/>
     <path id="DejaVuSans-Bold-75" d="M 500 1363 
L 500 3500 
L 1625 3500 
L 1625 3150 
Q 1625 2866 1622 2436 
Q 1619 2006 1619 1863 
Q 1619 1441 1641 1255 
Q 1663 1069 1716 984 
Q 1784 875 1895 815 
Q 2006 756 2150 756 
Q 2500 756 2700 1025 
Q 2900 1294 2900 1772 
L 2900 3500 
L 4019 3500 
L 4019 0 
L 2900 0 
L 2900 506 
Q 2647 200 2364 54 
Q 2081 -91 1741 -91 
Q 1134 -91 817 281 
Q 500 653 500 1363 
z
" transform="scale(0.015625)"/>
     <path id="DejaVuSans-Bold-28" d="M 2413 -844 
L 1484 -844 
Q 1006 -72 778 623 
Q 550 1319 550 2003 
Q 550 2688 779 3389 
Q 1009 4091 1484 4856 
L 2413 4856 
Q 2013 4116 1813 3408 
Q 1613 2700 1613 2009 
Q 1613 1319 1811 609 
Q 2009 -100 2413 -844 
z
" transform="scale(0.015625)"/>
     <path id="DejaVuSans-Bold-76" d="M 97 3500 
L 1216 3500 
L 2088 1081 
L 2956 3500 
L 4078 3500 
L 2700 0 
L 1472 0 
L 97 3500 
z
" transform="scale(0.015625)"/>
     <path id="DejaVuSans-Bold-67" d="M 2919 594 
Q 2688 288 2409 144 
Q 2131 0 1766 0 
Q 1125 0 706 504 
Q 288 1009 288 1791 
Q 288 2575 706 3076 
Q 1125 3578 1766 3578 
Q 2131 3578 2409 3434 
Q 2688 3291 2919 2981 
L 2919 3500 
L 4044 3500 
L 4044 353 
Q 4044 -491 3511 -936 
Q 2978 -1381 1966 -1381 
Q 1638 -1381 1331 -1331 
Q 1025 -1281 716 -1178 
L 716 -306 
Q 1009 -475 1290 -558 
Q 1572 -641 1856 -641 
Q 2406 -641 2662 -400 
Q 2919 -159 2919 353 
L 2919 594 
z
M 2181 2772 
Q 1834 2772 1640 2515 
Q 1447 2259 1447 1791 
Q 1447 1309 1634 1061 
Q 1822 813 2181 813 
Q 2531 813 2725 1069 
Q 2919 1325 2919 1791 
Q 2919 2259 2725 2515 
Q 2531 2772 2181 2772 
z
" transform="scale(0.015625)"/>
     <path id="DejaVuSans-Bold-6f" d="M 2203 2784 
Q 1831 2784 1636 2517 
Q 1441 2250 1441 1747 
Q 1441 1244 1636 976 
Q 1831 709 2203 709 
Q 2569 709 2762 976 
Q 2956 1244 2956 1747 
Q 2956 2250 2762 2517 
Q 2569 2784 2203 2784 
z
M 2203 3584 
Q 3106 3584 3614 3096 
Q 4122 2609 4122 1747 
Q 4122 884 3614 396 
Q 3106 -91 2203 -91 
Q 1297 -91 786 396 
Q 275 884 275 1747 
Q 275 2609 786 3096 
Q 1297 3584 2203 3584 
z
" transform="scale(0.015625)"/>
     <path id="DejaVuSans-Bold-36" d="M 2316 2303 
Q 2000 2303 1842 2098 
Q 1684 1894 1684 1484 
Q 1684 1075 1842 870 
Q 2000 666 2316 666 
Q 2634 666 2792 870 
Q 2950 1075 2950 1484 
Q 2950 1894 2792 2098 
Q 2634 2303 2316 2303 
z
M 3803 4544 
L 3803 3681 
Q 3506 3822 3243 3889 
Q 2981 3956 2731 3956 
Q 2194 3956 1894 3657 
Q 1594 3359 1544 2772 
Q 1750 2925 1990 3001 
Q 2231 3078 2516 3078 
Q 3231 3078 3670 2659 
Q 4109 2241 4109 1563 
Q 4109 813 3618 361 
Q 3128 -91 2303 -91 
Q 1394 -91 895 523 
Q 397 1138 397 2266 
Q 397 3422 980 4083 
Q 1563 4744 2578 4744 
Q 2900 4744 3203 4694 
Q 3506 4644 3803 4544 
z
" transform="scale(0.015625)"/>
     <path id="DejaVuSans-Bold-29" d="M 513 -844 
Q 913 -100 1113 609 
Q 1313 1319 1313 2009 
Q 1313 2700 1113 3408 
Q 913 4116 513 4856 
L 1441 4856 
Q 1916 4091 2145 3389 
Q 2375 2688 2375 2003 
Q 2375 1319 2147 623 
Q 1919 -72 1441 -844 
L 513 -844 
z
" transform="scale(0.015625)"/>
    </defs>
    <use xlink:href="#DejaVuSans-Bold-69"/>
    <use xlink:href="#DejaVuSans-Bold-6e" transform="translate(34.277344 0)"/>
    <use xlink:href="#DejaVuSans-Bold-66" transform="translate(105.46875 0)"/>
    <use xlink:href="#DejaVuSans-Bold-65" transform="translate(148.974609 0)"/>
    <use xlink:href="#DejaVuSans-Bold-72" transform="translate(216.796875 0)"/>
    <use xlink:href="#DejaVuSans-Bold-65" transform="translate(266.113281 0)"/>
    <use xlink:href="#DejaVuSans-Bold-6e" transform="translate(333.935547 0)"/>
    <use xlink:href="#DejaVuSans-Bold-63" transform="translate(405.126953 0)"/>
    <use xlink:href="#DejaVuSans-Bold-65" transform="translate(464.404297 0)"/>
    <use xlink:href="#DejaVuSans-Bold-2e" transform="translate(532.226562 0)"/>
    <use xlink:href="#DejaVuSans-Bold-70" transform="translate(570.214844 0)"/>
    <use xlink:href="#DejaVuSans-Bold-79" transform="translate(641.796875 0)"/>
    <use xlink:href="#DejaVuSans-Bold-20" transform="translate(706.982422 0)"/>
    <use xlink:href="#DejaVuSans-Bold-2014" transform="translate(741.796875 0)"/>
    <use xlink:href="#DejaVuSans-Bold-20" transform="translate(841.796875 0)"/>
    <use xlink:href="#DejaVuSans-Bold-6d" transform="translate(876.611328 0)"/>
    <use xlink:href="#DejaVuSans-Bold-65" transform="translate(980.810547 0)"/>
    <use xlink:href="#DejaVuSans-Bold-74" transform="translate(1048.632812 0)"/>
    <use xlink:href="#DejaVuSans-Bold-61" transform="translate(1096.435547 0)"/>
    <use xlink:href="#DejaVuSans-Bold-2d" transform="translate(1163.916016 0)"/>
    <use xlink:href="#DejaVuSans-Bold-6c" transform="translate(1205.419922 0)"/>
    <use xlink:href="#DejaVuSans-Bold-6c" transform="translate(1239.697266 0)"/>
    <use xlink:href="#DejaVuSans-Bold-61" transform="translate(1273.974609 0)"/>
    <use xlink:href="#DejaVuSans-Bold-6d" transform="translate(1341.455078 0)"/>
    <use xlink:href="#DejaVuSans-Bold-61" transform="translate(1445.654297 0)"/>
    <use xlink:href="#DejaVuSans-Bold-2f" transform="translate(1513.134766 0)"/>
    <use xlink:href="#DejaVuSans-Bold-4c" transform="translate(1549.658203 0)"/>
    <use xlink:href="#DejaVuSans-Bold-6c" transform="translate(1613.378906 0)"/>
    <use xlink:href="#DejaVuSans-Bold-61" transform="translate(1647.65625 0)"/>
    <use xlink:href="#DejaVuSans-Bold-6d" transform="translate(1715.136719 0)"/>
    <use xlink:href="#DejaVuSans-Bold-61" transform="translate(1819.335938 0)"/>
    <use xlink:href="#DejaVuSans-Bold-2d" transform="translate(1886.816406 0)"/>
    <use xlink:href="#DejaVuSans-Bold-33" transform="translate(1928.320312 0)"/>
    <use xlink:href="#DejaVuSans-Bold-2e" transform="translate(1997.900391 0)"/>
    <use xlink:href="#DejaVuSans-Bold-33" transform="translate(2035.888672 0)"/>
    <use xlink:href="#DejaVuSans-Bold-2d" transform="translate(2105.46875 0)"/>
    <use xlink:href="#DejaVuSans-Bold-37" transform="translate(2146.972656 0)"/>
    <use xlink:href="#DejaVuSans-Bold-30" transform="translate(2216.552734 0)"/>
    <use xlink:href="#DejaVuSans-Bold-42" transform="translate(2286.132812 0)"/>
    <use xlink:href="#DejaVuSans-Bold-2d" transform="translate(2362.353516 0)"/>
    <use xlink:href="#DejaVuSans-Bold-49" transform="translate(2403.857422 0)"/>
    <use xlink:href="#DejaVuSans-Bold-6e" transform="translate(2441.064453 0)"/>
    <use xlink:href="#DejaVuSans-Bold-73" transform="translate(2512.255859 0)"/>
    <use xlink:href="#DejaVuSans-Bold-74" transform="translate(2571.777344 0)"/>
    <use xlink:href="#DejaVuSans-Bold-72" transform="translate(2619.580078 0)"/>
    <use xlink:href="#DejaVuSans-Bold-75" transform="translate(2668.896484 0)"/>
    <use xlink:href="#DejaVuSans-Bold-63" transform="translate(2740.087891 0)"/>
    <use xlink:href="#DejaVuSans-Bold-74" transform="translate(2799.365234 0)"/>
    <use xlink:href="#DejaVuSans-Bold-20" transform="translate(2847.167969 0)"/>
    <use xlink:href="#DejaVuSans-Bold-28" transform="translate(2881.982422 0)"/>
    <use xlink:href="#DejaVuSans-Bold-61" transform="translate(2927.685547 0)"/>
    <use xlink:href="#DejaVuSans-Bold-76" transform="translate(2995.166016 0)"/>
    <use xlink:href="#DejaVuSans-Bold-67" transform="translate(3060.351562 0)"/>
    <use xlink:href="#DejaVuSans-Bold-20" transform="translate(3131.933594 0)"/>
    <use xlink:href="#DejaVuSans-Bold-73" transform="translate(3166.748047 0)"/>
    <use xlink:href="#DejaVuSans-Bold-63" transform="translate(3226.269531 0)"/>
    <use xlink:href="#DejaVuSans-Bold-6f" transform="translate(3285.546875 0)"/>
    <use xlink:href="#DejaVuSans-Bold-72" transform="translate(3354.248047 0)"/>
    <use xlink:href="#DejaVuSans-Bold-65" transform="translate(3403.564453 0)"/>
    <use xlink:href="#DejaVuSans-Bold-20" transform="translate(3471.386719 0)"/>
    <use xlink:href="#DejaVuSans-Bold-30" transform="translate(3506.201172 0)"/>
    <use xlink:href="#DejaVuSans-Bold-2e" transform="translate(3575.78125 0)"/>
    <use xlink:href="#DejaVuSans-Bold-36" transform="translate(3613.769531 0)"/>
    <use xlink:href="#DejaVuSans-Bold-36" transform="translate(3683.349609 0)"/>
    <use xlink:href="#DejaVuSans-Bold-37" transform="translate(3752.929688 0)"/>
    <use xlink:href="#DejaVuSans-Bold-29" transform="translate(3822.509766 0)"/>
   </g>
  </g>
 </g>
 <defs>
  <clipPath id="p9a5afb56bb">
   <rect x="43.78125" y="65.328" width="414.88" height="256.551506"/>
  </clipPath>
  <clipPath id="p25fb33ca69">
   <rect x="506.38125" y="65.328" width="414.88" height="256.551506"/>
  </clipPath>
 </defs>
</svg>
